<svg width="1084.8" height="1080.3" viewBox="0 0 287 285.8" xmlns="http://www.w3.org/2000/svg"><g fill="#fff" stroke="#000"><path d="M54.7 240.8H270M54.7 182.6H270M54.7 8.5H270M54.7 66.7H270M278 17.6V233" stroke-width="2.5"/><path d="M278.1 16.6a7.9 7.9 0 0 1-7.8-7.9A7.9 7.9 0 0 1 278 1a7.9 7.9 0 0 1 7.9 7.8 7.9 7.9 0 0 1-7.9 7.9zM278.1 74.5a7.9 7.9 0 0 1-7.8-7.8 7.9 7.9 0 0 1 7.8-7.9 7.9 7.9 0 0 1 7.9 7.9 7.9 7.9 0 0 1-7.9 7.8zM278.3 190.5a7.9 7.9 0 0 1-7.9-7.9 7.9 7.9 0 0 1 7.9-7.8 7.9 7.9 0 0 1 7.9 7.8 7.9 7.9 0 0 1-7.9 7.9zM278.3 248.5a7.9 7.9 0 0 1-7.9-7.9 7.9 7.9 0 0 1 7.9-7.8 7.9 7.9 0 0 1 7.9 7.8 7.9 7.9 0 0 1-7.9 7.9z" stroke-width="1.7"/><path d="M219.8 17.6V233" stroke-width="2.5"/><path d="M220 16.6a7.9 7.9 0 0 1-7.9-7.9A7.9 7.9 0 0 1 220 1a7.9 7.9 0 0 1 7.8 7.8 7.9 7.9 0 0 1-7.8 7.9zM220 74.5a7.9 7.9 0 0 1-7.9-7.8 7.9 7.9 0 0 1 7.9-7.9 7.9 7.9 0 0 1 7.8 7.9 7.9 7.9 0 0 1-7.8 7.8zM220.1 190.5a7.9 7.9 0 0 1-7.8-7.9 7.9 7.9 0 0 1 7.8-7.8 7.9 7.9 0 0 1 7.9 7.8 7.9 7.9 0 0 1-7.9 7.9zM220.1 248.5a7.9 7.9 0 0 1-7.8-7.9 7.9 7.9 0 0 1 7.8-7.8 7.9 7.9 0 0 1 7.9 7.8 7.9 7.9 0 0 1-7.9 7.9z" stroke-width="1.7"/><path d="M45.7 17.6V233" stroke-width="2.5"/><path d="M45.9 16.6A7.9 7.9 0 0 1 38 8.7 7.9 7.9 0 0 1 46 1a7.9 7.9 0 0 1 7.8 7.8 7.9 7.9 0 0 1-7.8 7.9zM45.9 74.5a7.9 7.9 0 0 1-7.9-7.8 7.9 7.9 0 0 1 7.9-7.9 7.9 7.9 0 0 1 7.8 7.9 7.9 7.9 0 0 1-7.8 7.8zM46 190.5a7.9 7.9 0 0 1-7.8-7.9 7.9 7.9 0 0 1 7.8-7.8 7.9 7.9 0 0 1 7.9 7.8 7.9 7.9 0 0 1-7.9 7.9zM46 248.5a7.9 7.9 0 0 1-7.8-7.9 7.9 7.9 0 0 1 7.8-7.8 7.9 7.9 0 0 1 7.9 7.8 7.9 7.9 0 0 1-7.9 7.9z" stroke-width="1.7"/><path d="M103.4 17.6V233" stroke-width="2.5"/><path d="M103.6 16.6a7.9 7.9 0 0 1-7.8-7.9 7.9 7.9 0 0 1 7.8-7.8 7.9 7.9 0 0 1 7.9 7.8 7.9 7.9 0 0 1-7.9 7.9zM103.6 74.5a7.9 7.9 0 0 1-7.8-7.8 7.9 7.9 0 0 1 7.8-7.9 7.9 7.9 0 0 1 7.9 7.9 7.9 7.9 0 0 1-7.9 7.8zM103.8 190.5a7.9 7.9 0 0 1-7.8-7.9 7.9 7.9 0 0 1 7.8-7.8 7.9 7.9 0 0 1 7.9 7.8 7.9 7.9 0 0 1-7.9 7.9zM103.8 248.5a7.9 7.9 0 0 1-7.8-7.9 7.9 7.9 0 0 1 7.8-7.8 7.9 7.9 0 0 1 7.9 7.8 7.9 7.9 0 0 1-7.9 7.9z" stroke-width="1.7"/><path d="M54.7 125H270" stroke-width="2.5"/><path d="M53.6 124.7a7.9 7.9 0 0 1-7.8 7.9 7.9 7.9 0 0 1-7.9-7.9 7.9 7.9 0 0 1 7.9-7.8 7.9 7.9 0 0 1 7.8 7.8zM111.6 124.7a7.9 7.9 0 0 1-7.9 7.9 7.9 7.9 0 0 1-7.8-7.9 7.9 7.9 0 0 1 7.8-7.8 7.9 7.9 0 0 1 7.9 7.8zM227.5 124.6a7.9 7.9 0 0 1-7.8 7.8 7.9 7.9 0 0 1-7.9-7.8 7.9 7.9 0 0 1 7.9-7.9 7.9 7.9 0 0 1 7.8 7.9zM285.5 124.6a7.9 7.9 0 0 1-7.8 7.8 7.9 7.9 0 0 1-7.9-7.8 7.9 7.9 0 0 1 7.9-7.9 7.9 7.9 0 0 1 7.8 7.9z" stroke-width="1.7"/><path d="M161.4 17.6V233" stroke-width="2.5"/><path d="M161.6 16.6a7.9 7.9 0 0 1-7.8-7.9 7.9 7.9 0 0 1 7.8-7.8 7.9 7.9 0 0 1 7.9 7.8 7.9 7.9 0 0 1-7.9 7.9zM161.6 74.5a7.9 7.9 0 0 1-7.8-7.8 7.9 7.9 0 0 1 7.8-7.9 7.9 7.9 0 0 1 7.9 7.9 7.9 7.9 0 0 1-7.9 7.8zM161.8 190.5a7.9 7.9 0 0 1-7.9-7.9 7.9 7.9 0 0 1 7.9-7.8 7.9 7.9 0 0 1 7.8 7.8 7.9 7.9 0 0 1-7.8 7.9zM161.8 248.5a7.9 7.9 0 0 1-7.9-7.9 7.9 7.9 0 0 1 7.9-7.8 7.9 7.9 0 0 1 7.8 7.8 7.9 7.9 0 0 1-7.8 7.9zM169.6 124.7a7.9 7.9 0 0 1-7.9 7.9 7.9 7.9 0 0 1-7.8-7.9 7.9 7.9 0 0 1 7.8-7.8 7.9 7.9 0 0 1 7.9 7.8z" stroke-width="1.7"/></g><g fill="#fff" stroke="#000"><path d="M45.7 249.8H261M45.7 191.6H261M45.7 17.5H261M45.7 75.7H261M269 26.6V242" stroke-width="2.5"/><path d="M269.1 25.6a7.9 7.9 0 0 1-7.8-7.9A7.9 7.9 0 0 1 269 10a7.9 7.9 0 0 1 7.9 7.8 7.9 7.9 0 0 1-7.9 7.9zM269.1 83.5a7.9 7.9 0 0 1-7.8-7.8 7.9 7.9 0 0 1 7.8-7.9 7.9 7.9 0 0 1 7.9 7.9 7.9 7.9 0 0 1-7.9 7.8zM269.3 199.5a7.9 7.9 0 0 1-7.8-7.9 7.9 7.9 0 0 1 7.8-7.8 7.9 7.9 0 0 1 7.9 7.8 7.9 7.9 0 0 1-7.9 7.9zM269.3 257.5a7.9 7.9 0 0 1-7.8-7.9 7.9 7.9 0 0 1 7.8-7.8 7.9 7.9 0 0 1 7.9 7.8 7.9 7.9 0 0 1-7.9 7.9z" stroke-width="1.7"/><path d="M210.8 26.6V242" stroke-width="2.5"/><path d="M211 25.6a7.9 7.9 0 0 1-7.9-7.9A7.9 7.9 0 0 1 211 10a7.9 7.9 0 0 1 7.8 7.8 7.9 7.9 0 0 1-7.8 7.9zM211 83.5a7.9 7.9 0 0 1-7.9-7.8 7.9 7.9 0 0 1 7.9-7.9 7.9 7.9 0 0 1 7.8 7.9 7.9 7.9 0 0 1-7.8 7.8zM211.1 199.5a7.9 7.9 0 0 1-7.8-7.9 7.9 7.9 0 0 1 7.8-7.8 7.9 7.9 0 0 1 7.9 7.8 7.9 7.9 0 0 1-7.9 7.9zM211.1 257.5a7.9 7.9 0 0 1-7.8-7.9 7.9 7.9 0 0 1 7.8-7.8 7.9 7.9 0 0 1 7.9 7.8 7.9 7.9 0 0 1-7.9 7.9z" stroke-width="1.7"/><path d="M36.7 26.6V242" stroke-width="2.5"/><path d="M36.9 25.6a7.9 7.9 0 0 1-7.9-7.9A7.9 7.9 0 0 1 37 10a7.9 7.9 0 0 1 7.8 7.8 7.9 7.9 0 0 1-7.8 7.9zM36.9 83.5a7.9 7.9 0 0 1-7.9-7.8 7.9 7.9 0 0 1 7.9-7.9 7.9 7.9 0 0 1 7.8 7.9 7.9 7.9 0 0 1-7.8 7.8zM37 199.5a7.9 7.9 0 0 1-7.8-7.9 7.9 7.9 0 0 1 7.8-7.8 7.9 7.9 0 0 1 7.9 7.8 7.9 7.9 0 0 1-7.9 7.9zM37 257.5a7.9 7.9 0 0 1-7.8-7.9 7.9 7.9 0 0 1 7.8-7.8 7.9 7.9 0 0 1 7.9 7.8 7.9 7.9 0 0 1-7.9 7.9z" stroke-width="1.7"/><path d="M94.5 26.6V242" stroke-width="2.5"/><path d="M94.6 25.6a7.9 7.9 0 0 1-7.8-7.9 7.9 7.9 0 0 1 7.8-7.8 7.9 7.9 0 0 1 8 7.8 7.9 7.9 0 0 1-8 7.9zM94.6 83.5a7.9 7.9 0 0 1-7.8-7.8 7.9 7.9 0 0 1 7.8-7.9 7.9 7.9 0 0 1 8 7.9 7.9 7.9 0 0 1-8 7.8zM94.8 199.5a7.9 7.9 0 0 1-7.8-7.9 7.9 7.9 0 0 1 7.8-7.8 7.9 7.9 0 0 1 7.9 7.8 7.9 7.9 0 0 1-7.9 7.9zM94.8 257.5a7.9 7.9 0 0 1-7.8-7.9 7.9 7.9 0 0 1 7.8-7.8 7.9 7.9 0 0 1 7.9 7.8 7.9 7.9 0 0 1-7.9 7.9z" stroke-width="1.7"/><path d="M45.7 134H261" stroke-width="2.5"/><path d="M44.6 133.7a7.9 7.9 0 0 1-7.8 7.9 7.9 7.9 0 0 1-7.9-7.9 7.9 7.9 0 0 1 7.9-7.8 7.9 7.9 0 0 1 7.8 7.8zM102.6 133.7a7.9 7.9 0 0 1-7.9 7.9 7.9 7.9 0 0 1-7.8-7.9 7.9 7.9 0 0 1 7.8-7.8 7.9 7.9 0 0 1 7.9 7.8zM218.5 133.6a7.9 7.9 0 0 1-7.8 7.8 7.9 7.9 0 0 1-7.9-7.8 7.9 7.9 0 0 1 7.9-7.9 7.9 7.9 0 0 1 7.8 7.9zM276.5 133.6a7.9 7.9 0 0 1-7.8 7.8 7.9 7.9 0 0 1-7.9-7.8 7.9 7.9 0 0 1 7.9-7.9 7.9 7.9 0 0 1 7.8 7.9z" stroke-width="1.7"/><path d="M152.4 26.6V242" stroke-width="2.5"/><path d="M152.6 25.6a7.9 7.9 0 0 1-7.8-7.9 7.9 7.9 0 0 1 7.8-7.8 7.9 7.9 0 0 1 7.9 7.8 7.9 7.9 0 0 1-7.9 7.9zM152.6 83.5a7.9 7.9 0 0 1-7.8-7.8 7.9 7.9 0 0 1 7.8-7.9 7.9 7.9 0 0 1 7.9 7.9 7.9 7.9 0 0 1-7.9 7.8zM152.8 199.5a7.9 7.9 0 0 1-7.9-7.9 7.9 7.9 0 0 1 7.9-7.8 7.9 7.9 0 0 1 7.8 7.8 7.9 7.9 0 0 1-7.8 7.9zM152.8 257.5a7.9 7.9 0 0 1-7.9-7.9 7.9 7.9 0 0 1 7.9-7.8 7.9 7.9 0 0 1 7.8 7.8 7.9 7.9 0 0 1-7.8 7.9zM160.6 133.7a7.9 7.9 0 0 1-7.9 7.9 7.9 7.9 0 0 1-7.8-7.9 7.9 7.9 0 0 1 7.8-7.8 7.9 7.9 0 0 1 7.9 7.8z" stroke-width="1.7"/></g><g fill="#fff" stroke="#000"><path d="M36.7 258.8H252M36.7 200.6H252M36.7 26.5H252M36.7 84.7H252M260 35.6V251" stroke-width="2.5"/><path d="M260.1 34.6a7.9 7.9 0 0 1-7.8-7.9 7.9 7.9 0 0 1 7.8-7.9 7.9 7.9 0 0 1 8 7.9 7.9 7.9 0 0 1-8 7.9zM260.1 92.5a7.9 7.9 0 0 1-7.8-7.8 7.9 7.9 0 0 1 7.8-7.9 7.9 7.9 0 0 1 8 7.9 7.9 7.9 0 0 1-8 7.8zM260.3 208.5a7.9 7.9 0 0 1-7.8-7.9 7.9 7.9 0 0 1 7.8-7.8 7.9 7.9 0 0 1 7.9 7.8 7.9 7.9 0 0 1-7.9 7.9zM260.3 266.5a7.9 7.9 0 0 1-7.8-7.9 7.9 7.9 0 0 1 7.8-7.8 7.9 7.9 0 0 1 7.9 7.8 7.9 7.9 0 0 1-7.9 7.9z" stroke-width="1.7"/><path d="M201.8 35.6V251" stroke-width="2.5"/><path d="M202 34.6a7.9 7.9 0 0 1-7.9-7.9 7.9 7.9 0 0 1 7.9-7.9 7.9 7.9 0 0 1 7.8 7.9 7.9 7.9 0 0 1-7.8 7.9zM202 92.5a7.9 7.9 0 0 1-7.9-7.8 7.9 7.9 0 0 1 7.9-7.9 7.9 7.9 0 0 1 7.8 7.9 7.9 7.9 0 0 1-7.8 7.8zM202.1 208.5a7.9 7.9 0 0 1-7.8-7.9 7.9 7.9 0 0 1 7.8-7.8 7.9 7.9 0 0 1 7.9 7.8 7.9 7.9 0 0 1-7.9 7.9zM202.1 266.5a7.9 7.9 0 0 1-7.8-7.9 7.9 7.9 0 0 1 7.8-7.8 7.9 7.9 0 0 1 7.9 7.8 7.9 7.9 0 0 1-7.9 7.9z" stroke-width="1.7"/><path d="M27.7 35.6V251" stroke-width="2.5"/><path d="M27.9 34.6a7.9 7.9 0 0 1-7.9-7.9 7.9 7.9 0 0 1 7.9-7.9 7.9 7.9 0 0 1 7.8 7.9 7.9 7.9 0 0 1-7.8 7.9zM27.9 92.5a7.9 7.9 0 0 1-7.9-7.8 7.9 7.9 0 0 1 7.9-7.9 7.9 7.9 0 0 1 7.8 7.9 7.9 7.9 0 0 1-7.8 7.8zM28 208.5a7.9 7.9 0 0 1-7.8-7.9 7.9 7.9 0 0 1 7.8-7.8 7.9 7.9 0 0 1 7.9 7.8 7.9 7.9 0 0 1-7.9 7.9zM28 266.5a7.9 7.9 0 0 1-7.8-7.9 7.9 7.9 0 0 1 7.8-7.8 7.9 7.9 0 0 1 7.9 7.8 7.9 7.9 0 0 1-7.9 7.9z" stroke-width="1.7"/><path d="M85.5 35.6V251" stroke-width="2.5"/><path d="M85.7 34.6a7.9 7.9 0 0 1-7.9-7.9 7.9 7.9 0 0 1 7.9-7.9 7.9 7.9 0 0 1 7.8 7.9 7.9 7.9 0 0 1-7.8 7.9zM85.7 92.5a7.9 7.9 0 0 1-7.9-7.8 7.9 7.9 0 0 1 7.9-7.9 7.9 7.9 0 0 1 7.8 7.9 7.9 7.9 0 0 1-7.8 7.8zM85.8 208.5a7.9 7.9 0 0 1-7.8-7.9 7.9 7.9 0 0 1 7.8-7.8 7.9 7.9 0 0 1 7.9 7.8 7.9 7.9 0 0 1-7.9 7.9zM85.8 266.5a7.9 7.9 0 0 1-7.8-7.9 7.9 7.9 0 0 1 7.8-7.8 7.9 7.9 0 0 1 7.9 7.8 7.9 7.9 0 0 1-7.9 7.9z" stroke-width="1.7"/><path d="M36.7 143H252" stroke-width="2.5"/><path d="M35.6 142.7a7.9 7.9 0 0 1-7.8 7.9 7.9 7.9 0 0 1-7.9-7.9 7.9 7.9 0 0 1 7.9-7.8 7.9 7.9 0 0 1 7.8 7.8zM93.6 142.7a7.9 7.9 0 0 1-7.9 7.9 7.9 7.9 0 0 1-7.8-7.9 7.9 7.9 0 0 1 7.8-7.8 7.9 7.9 0 0 1 7.9 7.8zM209.5 142.6a7.9 7.9 0 0 1-7.8 7.8 7.9 7.9 0 0 1-7.9-7.8 7.9 7.9 0 0 1 7.9-7.9 7.9 7.9 0 0 1 7.8 7.9zM267.5 142.6a7.9 7.9 0 0 1-7.8 7.8 7.9 7.9 0 0 1-7.9-7.8 7.9 7.9 0 0 1 7.9-7.9 7.9 7.9 0 0 1 7.8 7.9z" stroke-width="1.7"/><path d="M143.4 35.6V251" stroke-width="2.5"/><path d="M143.6 34.6a7.9 7.9 0 0 1-7.8-7.9 7.9 7.9 0 0 1 7.8-7.9 7.9 7.9 0 0 1 7.9 7.9 7.9 7.9 0 0 1-7.9 7.9zM143.6 92.5a7.9 7.9 0 0 1-7.8-7.8 7.9 7.9 0 0 1 7.8-7.9 7.9 7.9 0 0 1 7.9 7.9 7.9 7.9 0 0 1-7.9 7.8zM143.8 208.5a7.9 7.9 0 0 1-7.9-7.9 7.9 7.9 0 0 1 7.9-7.8 7.9 7.9 0 0 1 7.9 7.8 7.9 7.9 0 0 1-7.9 7.9zM143.8 266.5a7.9 7.9 0 0 1-7.9-7.9 7.9 7.9 0 0 1 7.9-7.8 7.9 7.9 0 0 1 7.9 7.8 7.9 7.9 0 0 1-7.9 7.9zM151.6 142.7a7.9 7.9 0 0 1-7.9 7.9 7.9 7.9 0 0 1-7.8-7.9 7.9 7.9 0 0 1 7.8-7.8 7.9 7.9 0 0 1 7.9 7.8z" stroke-width="1.7"/></g><g fill="#fff" stroke="#000"><path d="M27.1 268.3h215.4M27.1 210.1h215.4M27.1 36h215.4M27.1 94.3h215.4M250.4 45.1v215.4" stroke-width="2.5"/><path d="M250.6 44a7.9 7.9 0 0 1-7.8-7.8 7.9 7.9 0 0 1 7.8-7.8 7.9 7.9 0 0 1 7.9 7.8 7.9 7.9 0 0 1-7.9 7.9zM250.6 102a7.9 7.9 0 0 1-7.8-7.8 7.9 7.9 0 0 1 7.8-7.8 7.9 7.9 0 0 1 7.9 7.8 7.9 7.9 0 0 1-7.9 7.9zM250.8 218a7.9 7.9 0 0 1-7.9-7.8 7.9 7.9 0 0 1 7.9-7.9 7.9 7.9 0 0 1 7.8 7.9 7.9 7.9 0 0 1-7.8 7.8zM250.8 276a7.9 7.9 0 0 1-7.9-7.9 7.9 7.9 0 0 1 7.9-7.8 7.9 7.9 0 0 1 7.8 7.8 7.9 7.9 0 0 1-7.8 7.9z" stroke-width="1.7"/><path d="M192.2 45.1v215.4" stroke-width="2.5"/><path d="M192.4 44a7.9 7.9 0 0 1-7.8-7.8 7.9 7.9 0 0 1 7.8-7.8 7.9 7.9 0 0 1 7.9 7.8 7.9 7.9 0 0 1-7.9 7.9zM192.4 102a7.9 7.9 0 0 1-7.8-7.8 7.9 7.9 0 0 1 7.8-7.8 7.9 7.9 0 0 1 7.9 7.8 7.9 7.9 0 0 1-7.9 7.9zM192.6 218a7.9 7.9 0 0 1-7.8-7.8 7.9 7.9 0 0 1 7.8-7.9 7.9 7.9 0 0 1 7.9 7.9 7.9 7.9 0 0 1-7.9 7.8zM192.6 276a7.9 7.9 0 0 1-7.8-7.9 7.9 7.9 0 0 1 7.8-7.8 7.9 7.9 0 0 1 7.9 7.8 7.9 7.9 0 0 1-7.9 7.9z" stroke-width="1.7"/><path d="M18.2 45.1v215.4" stroke-width="2.5"/><path d="M18.3 44a7.9 7.9 0 0 1-7.8-7.8 7.9 7.9 0 0 1 7.8-7.8 7.9 7.9 0 0 1 8 7.8 7.9 7.9 0 0 1-8 7.9zM18.3 102a7.9 7.9 0 0 1-7.8-7.8 7.9 7.9 0 0 1 7.8-7.8 7.9 7.9 0 0 1 8 7.8 7.9 7.9 0 0 1-8 7.9zM18.5 218a7.9 7.9 0 0 1-7.8-7.8 7.9 7.9 0 0 1 7.8-7.9 7.9 7.9 0 0 1 7.9 7.9 7.9 7.9 0 0 1-7.9 7.8zM18.5 276a7.9 7.9 0 0 1-7.8-7.9 7.9 7.9 0 0 1 7.8-7.8 7.9 7.9 0 0 1 7.9 7.8 7.9 7.9 0 0 1-7.9 7.9z" stroke-width="1.7"/><path d="M76 45.1v215.4" stroke-width="2.5"/><path d="M76.1 44a7.9 7.9 0 0 1-7.8-7.8 7.9 7.9 0 0 1 7.8-7.8 7.9 7.9 0 0 1 7.9 7.8 7.9 7.9 0 0 1-7.9 7.9zM76.1 102a7.9 7.9 0 0 1-7.8-7.8 7.9 7.9 0 0 1 7.8-7.8 7.9 7.9 0 0 1 7.9 7.8 7.9 7.9 0 0 1-7.9 7.9zM76.3 218a7.9 7.9 0 0 1-7.9-7.8 7.9 7.9 0 0 1 7.9-7.9 7.9 7.9 0 0 1 7.8 7.9 7.9 7.9 0 0 1-7.8 7.8zM76.3 276a7.9 7.9 0 0 1-7.9-7.9 7.9 7.9 0 0 1 7.9-7.8A7.9 7.9 0 0 1 84 268a7.9 7.9 0 0 1-7.8 7.9z" stroke-width="1.7"/><path d="M27.1 152.5h215.4" stroke-width="2.5"/><path d="M26 152.3a7.9 7.9 0 0 1-7.8 7.8 7.9 7.9 0 0 1-7.8-7.8 7.9 7.9 0 0 1 7.8-7.9 7.9 7.9 0 0 1 7.9 7.9zM84 152.3a7.9 7.9 0 0 1-7.8 7.8 7.9 7.9 0 0 1-7.8-7.8 7.9 7.9 0 0 1 7.8-7.9 7.9 7.9 0 0 1 7.9 7.9zM200 152.1a7.9 7.9 0 0 1-7.8 7.9 7.9 7.9 0 0 1-7.9-7.9 7.9 7.9 0 0 1 7.9-7.9 7.9 7.9 0 0 1 7.8 7.9zM258 152.1a7.9 7.9 0 0 1-7.9 7.9 7.9 7.9 0 0 1-7.8-7.9 7.9 7.9 0 0 1 7.8-7.9 7.9 7.9 0 0 1 7.9 7.9z" stroke-width="1.7"/><path d="M134 45.1v215.4" stroke-width="2.5"/><path d="M134.1 44a7.9 7.9 0 0 1-7.8-7.8 7.9 7.9 0 0 1 7.8-7.8 7.9 7.9 0 0 1 7.9 7.8 7.9 7.9 0 0 1-7.9 7.9zM134.1 102a7.9 7.9 0 0 1-7.8-7.8 7.9 7.9 0 0 1 7.8-7.8 7.9 7.9 0 0 1 7.9 7.8 7.9 7.9 0 0 1-7.9 7.9zM134.3 218a7.9 7.9 0 0 1-7.9-7.8 7.9 7.9 0 0 1 7.9-7.9 7.9 7.9 0 0 1 7.8 7.9 7.9 7.9 0 0 1-7.8 7.8zM134.3 276a7.9 7.9 0 0 1-7.9-7.9 7.9 7.9 0 0 1 7.9-7.8 7.9 7.9 0 0 1 7.8 7.8 7.9 7.9 0 0 1-7.8 7.9zM142 152.3a7.9 7.9 0 0 1-7.8 7.8 7.9 7.9 0 0 1-7.9-7.8 7.9 7.9 0 0 1 7.9-7.9 7.9 7.9 0 0 1 7.9 7.9z" stroke-width="1.7"/></g><path d="M17.6 277.3H233M17.6 219.1H233M17.6 45H233M17.6 103.2H233M240.9 53.6v215.3" fill="#fff" stroke="#000" stroke-width="2.5"/><path d="M241.1 53a7.9 7.9 0 0 1-7.9-7.8 7.9 7.9 0 0 1 7.9-7.8 7.9 7.9 0 0 1 7.9 7.8 7.9 7.9 0 0 1-7.9 7.9zM241.1 111a7.9 7.9 0 0 1-7.9-7.8 7.9 7.9 0 0 1 7.9-7.9 7.9 7.9 0 0 1 7.9 7.9 7.9 7.9 0 0 1-7.9 7.9zM241.3 227a7.9 7.9 0 0 1-7.9-7.8 7.9 7.9 0 0 1 7.9-8 7.9 7.9 0 0 1 7.8 8 7.9 7.9 0 0 1-7.8 7.8zM241.3 285a7.9 7.9 0 0 1-7.9-7.9 7.9 7.9 0 0 1 7.9-7.8 7.9 7.9 0 0 1 7.8 7.8 7.9 7.9 0 0 1-7.8 7.9z" fill="#fff" stroke="#000" stroke-width="1.7"/><path d="M182.7 53.6v215.3" fill="#fff" stroke="#000" stroke-width="2.5"/><path d="M183 53a7.9 7.9 0 0 1-8-7.8 7.9 7.9 0 0 1 8-7.8 7.9 7.9 0 0 1 7.8 7.8 7.9 7.9 0 0 1-7.9 7.9zM183 111a7.9 7.9 0 0 1-8-7.8 7.9 7.9 0 0 1 8-7.9 7.9 7.9 0 0 1 7.8 7.9 7.9 7.9 0 0 1-7.9 7.9zM183 227a7.9 7.9 0 0 1-7.8-7.8 7.9 7.9 0 0 1 7.9-8 7.9 7.9 0 0 1 7.8 8 7.9 7.9 0 0 1-7.8 7.8zM183 285a7.9 7.9 0 0 1-7.8-7.9 7.9 7.9 0 0 1 7.9-7.8 7.9 7.9 0 0 1 7.8 7.8 7.9 7.9 0 0 1-7.8 7.9z" fill="#fff" stroke="#000" stroke-width="1.7"/><path d="M8.6 53.6v215.3" fill="#fff" stroke="#000" stroke-width="2.5"/><path d="M8.8 53A7.9 7.9 0 0 1 1 45.3a7.9 7.9 0 0 1 7.8-7.8 7.9 7.9 0 0 1 7.9 7.8 7.9 7.9 0 0 1-7.9 7.9zM8.8 111a7.9 7.9 0 0 1-7.8-7.8 7.9 7.9 0 0 1 7.8-7.9 7.9 7.9 0 0 1 7.9 7.9 7.9 7.9 0 0 1-7.9 7.9zM9 227a7.9 7.9 0 0 1-7.9-7.8 7.9 7.9 0 0 1 7.9-8 7.9 7.9 0 0 1 7.8 8A7.9 7.9 0 0 1 9 227zM9 285A7.9 7.9 0 0 1 1 277a7.9 7.9 0 0 1 7.9-7.8 7.9 7.9 0 0 1 7.8 7.8A7.9 7.9 0 0 1 9 285z" fill="#fff" stroke="#000" stroke-width="1.7"/><path d="M66.4 53.6v215.3" fill="#fff" stroke="#000" stroke-width="2.5"/><path d="M66.6 53a7.9 7.9 0 0 1-7.9-7.8 7.9 7.9 0 0 1 7.9-7.8 7.9 7.9 0 0 1 7.9 7.8 7.9 7.9 0 0 1-7.9 7.9zM66.6 111a7.9 7.9 0 0 1-7.9-7.8 7.9 7.9 0 0 1 7.9-7.9 7.9 7.9 0 0 1 7.9 7.9 7.9 7.9 0 0 1-7.9 7.9zM66.8 227a7.9 7.9 0 0 1-7.9-7.8 7.9 7.9 0 0 1 7.9-8 7.9 7.9 0 0 1 7.8 8 7.9 7.9 0 0 1-7.8 7.8zM66.8 285a7.9 7.9 0 0 1-7.9-7.9 7.9 7.9 0 0 1 7.9-7.8 7.9 7.9 0 0 1 7.8 7.8 7.9 7.9 0 0 1-7.8 7.9z" fill="#fff" stroke="#000" stroke-width="1.7"/><path d="M17.6 161.5H233" fill="#fff" stroke="#000" stroke-width="2.5"/><path d="M16.6 161.3a7.9 7.9 0 0 1-7.9 7.8 7.9 7.9 0 0 1-7.8-7.8 7.9 7.9 0 0 1 7.8-7.9 7.9 7.9 0 0 1 7.9 7.9zM74.5 161.3a7.9 7.9 0 0 1-7.8 7.8 7.9 7.9 0 0 1-7.9-7.8 7.9 7.9 0 0 1 7.9-7.9 7.9 7.9 0 0 1 7.8 7.9zM190.5 161.1a7.9 7.9 0 0 1-7.9 7.9 7.9 7.9 0 0 1-7.8-7.9 7.9 7.9 0 0 1 7.8-7.9 7.9 7.9 0 0 1 7.9 7.9zM248.5 161.1a7.9 7.9 0 0 1-7.9 7.9 7.9 7.9 0 0 1-7.8-7.9 7.9 7.9 0 0 1 7.8-7.9 7.9 7.9 0 0 1 7.9 7.9z" fill="#fff" stroke="#000" stroke-width="1.7"/><path d="M124.4 53.6v215.3" fill="#fff" stroke="#000" stroke-width="2.5"/><path d="M124.6 53a7.9 7.9 0 0 1-7.9-7.8 7.9 7.9 0 0 1 7.9-7.8 7.9 7.9 0 0 1 7.8 7.8 7.9 7.9 0 0 1-7.8 7.9zM124.6 111a7.9 7.9 0 0 1-7.9-7.8 7.9 7.9 0 0 1 7.9-7.9 7.9 7.9 0 0 1 7.8 7.9 7.9 7.9 0 0 1-7.8 7.9zM124.7 227a7.9 7.9 0 0 1-7.8-7.8 7.9 7.9 0 0 1 7.8-8 7.9 7.9 0 0 1 7.9 8 7.9 7.9 0 0 1-7.9 7.8zM124.7 285a7.9 7.9 0 0 1-7.8-7.9 7.9 7.9 0 0 1 7.8-7.8 7.9 7.9 0 0 1 7.9 7.8 7.9 7.9 0 0 1-7.9 7.9zM132.5 161.3a7.9 7.9 0 0 1-7.8 7.8 7.9 7.9 0 0 1-7.9-7.8 7.9 7.9 0 0 1 7.9-7.9 7.9 7.9 0 0 1 7.8 7.9z" fill="#fff" stroke="#000" stroke-width="1.7"/><path d="M-55.2 156.3h.8q.6 0 .9-.2l.2-.6q0-.4-.2-.7-.3-.2-.8-.2-.9 0-1.1 1l-1.6-.3q.2-.9 1-1.5.7-.5 1.8-.5t1.9.5q.7.5.7 1.5 0 1.2-1.2 1.7 1.5.4 1.5 1.7 0 1-.8 1.7-.8.6-2.1.6t-2.1-.6q-.8-.7-1-1.7l1.7-.2q.2 1.2 1.3 1.2.5 0 .9-.3.3-.3.3-.8 0-.4-.3-.7-.3-.2-1.1-.2h-.7z" transform="translate(82 -130.5)" aria-label="3" style="line-height:1.25;-inkscape-font-specification:'Franklin Gothic Demi';text-align:end" font-size="11.3" font-family="Franklin Gothic Demi" text-anchor="end" stroke-width=".3"/><path d="M-56.7 124.6V123q2-.5 2.5-1.5h1.3v6.3h2v1.3h-6v-1.3h2.3v-4.3q-1.4.8-2.1 1z" transform="translate(139.6 -98.6)" aria-label="1" style="line-height:1.25;-inkscape-font-specification:'Franklin Gothic Demi';text-align:end" font-size="11.3" font-family="Franklin Gothic Demi" text-anchor="end" stroke-width=".3"/><path d="M-52.1 169.1v4.6h1v1.3h-1v1.8H-54V175h-3.3v-1.3l3-4.6zm-3.7 4.6h2V170.5z" transform="translate(197.4 -146)" aria-label="4" style="line-height:1.25;-inkscape-font-specification:'Franklin Gothic Demi';text-align:end" font-size="11.3" font-family="Franklin Gothic Demi" text-anchor="end" stroke-width=".3"/><path d="m-51.3 143.5-.1 1.5h-5.7v-1.4l1-.7 2.2-1.8q.7-.7.7-1.3 0-.5-.3-.7-.3-.3-.7-.3-1.1 0-1.3 1.4l-1.6-.3q.6-2.5 3-2.5 1.3 0 2 .7t.7 1.7q0 1-.7 1.7-.8.8-2.8 2z" transform="translate(256.2 -114.8)" aria-label="2" style="line-height:1.25;-inkscape-font-specification:'Franklin Gothic Demi';text-align:end" font-size="11.3" font-family="Franklin Gothic Demi" text-anchor="end" stroke-width=".3"/><path d="M-51.7 186.7H-55l-.2 1.6q.7-.6 1.6-.6 1 0 1.8.7.7.6.7 1.7 0 1.2-.8 2-.7.7-2.1.7-2.4 0-3-2.2l1.7-.2q.2 1 1.2 1 .6 0 .9-.4.3-.3.3-.8t-.3-.8q-.4-.4-.9-.4-.7 0-1 .6l-1.5-.2.3-4.3h4.7z" transform="translate(313.8 -162.3)" aria-label="5" style="line-height:1.25;-inkscape-font-specification:'Franklin Gothic Demi';text-align:end" font-size="11.3" font-family="Franklin Gothic Demi" text-anchor="end" stroke-width=".3"/><path d="M-51.7 186.7H-55l-.2 1.6q.7-.6 1.6-.6 1 0 1.8.7.7.6.7 1.7 0 1.2-.8 2-.7.7-2.1.7-2.4 0-3-2.2l1.7-.2q.2 1 1.2 1 .6 0 .9-.4.3-.3.3-.8t-.3-.8q-.4-.4-.9-.4-.7 0-1 .6l-1.5-.2.3-4.3h4.7z" transform="translate(81.8 -104)" aria-label="5" style="line-height:1.25;-inkscape-font-specification:'Franklin Gothic Demi';text-align:end" font-size="11.3" font-family="Franklin Gothic Demi" text-anchor="end" stroke-width=".3"/><path d="M-55.2 156.3h.8q.6 0 .9-.2l.2-.6q0-.4-.2-.7-.3-.2-.8-.2-.9 0-1.1 1l-1.6-.3q.2-.9 1-1.5.7-.5 1.8-.5t1.9.5q.7.5.7 1.5 0 1.2-1.2 1.7 1.5.4 1.5 1.7 0 1-.8 1.7-.8.6-2.1.6t-2.1-.6q-.8-.7-1-1.7l1.7-.2q.2 1.2 1.3 1.2.5 0 .9-.3.3-.3.3-.8 0-.4-.3-.7-.3-.2-1.1-.2h-.7z" transform="translate(139.9 -72.5)" aria-label="3" style="line-height:1.25;-inkscape-font-specification:'Franklin Gothic Demi';text-align:end" font-size="11.3" font-family="Franklin Gothic Demi" text-anchor="end" stroke-width=".3"/><path d="m-51.3 143.5-.1 1.5h-5.7v-1.4l1-.7 2.2-1.8q.7-.7.7-1.3 0-.5-.3-.7-.3-.3-.7-.3-1.1 0-1.3 1.4l-1.6-.3q.6-2.5 3-2.5 1.3 0 2 .7t.7 1.7q0 1-.7 1.7-.8.8-2.8 2z" transform="translate(198 -56.6)" aria-label="2" style="line-height:1.25;-inkscape-font-specification:'Franklin Gothic Demi';text-align:end" font-size="11.3" font-family="Franklin Gothic Demi" text-anchor="end" stroke-width=".3"/><path d="M-55.2 156.3h.8q.6 0 .9-.2l.2-.6q0-.4-.2-.7-.3-.2-.8-.2-.9 0-1.1 1l-1.6-.3q.2-.9 1-1.5.7-.5 1.8-.5t1.9.5q.7.5.7 1.5 0 1.2-1.2 1.7 1.5.4 1.5 1.7 0 1-.8 1.7-.8.6-2.1.6t-2.1-.6q-.8-.7-1-1.7l1.7-.2q.2 1.2 1.3 1.2.5 0 .9-.3.3-.3.3-.8 0-.4-.3-.7-.3-.2-1.1-.2h-.7z" transform="translate(256.3 -72.5)" aria-label="3" style="line-height:1.25;-inkscape-font-specification:'Franklin Gothic Demi';text-align:end" font-size="11.3" font-family="Franklin Gothic Demi" text-anchor="end" stroke-width=".3"/><path d="M-56.7 124.6V123q2-.5 2.5-1.5h1.3v6.3h2v1.3h-6v-1.3h2.3v-4.3q-1.4.8-2.1 1z" transform="translate(314 -40.7)" aria-label="1" style="line-height:1.25;-inkscape-font-specification:'Franklin Gothic Demi';text-align:end" font-size="11.3" font-family="Franklin Gothic Demi" text-anchor="end" stroke-width=".3"/><path d="M-52.1 169.1v4.6h1v1.3h-1v1.8H-54V175h-3.3v-1.3l3-4.6zm-3.7 4.6h2V170.5z" transform="translate(81.6 -30.5)" aria-label="4" style="line-height:1.25;-inkscape-font-specification:'Franklin Gothic Demi';text-align:end" font-size="11.3" font-family="Franklin Gothic Demi" text-anchor="end" stroke-width=".3"/><path d="M-51.7 186.7H-55l-.2 1.6q.7-.6 1.6-.6 1 0 1.8.7.7.6.7 1.7 0 1.2-.8 2-.7.7-2.1.7-2.4 0-3-2.2l1.7-.2q.2 1 1.2 1 .6 0 .9-.4.3-.3.3-.8t-.3-.8q-.4-.4-.9-.4-.7 0-1 .6l-1.5-.2.3-4.3h4.7z" transform="translate(139.6 -46)" aria-label="5" style="line-height:1.25;-inkscape-font-specification:'Franklin Gothic Demi';text-align:end" font-size="11.3" font-family="Franklin Gothic Demi" text-anchor="end" stroke-width=".3"/><path d="M-52.1 169.1v4.6h1v1.3h-1v1.8H-54V175h-3.3v-1.3l3-4.6zm-3.7 4.6h2V170.5z" transform="translate(255.7 -30.5)" aria-label="4" style="line-height:1.25;-inkscape-font-specification:'Franklin Gothic Demi';text-align:end" font-size="11.3" font-family="Franklin Gothic Demi" text-anchor="end" stroke-width=".3"/><path d="M-51.7 186.7H-55l-.2 1.6q.7-.6 1.6-.6 1 0 1.8.7.7.6.7 1.7 0 1.2-.8 2-.7.7-2.1.7-2.4 0-3-2.2l1.7-.2q.2 1 1.2 1 .6 0 .9-.4.3-.3.3-.8t-.3-.8q-.4-.4-.9-.4-.7 0-1 .6l-1.5-.2.3-4.3h4.7z" transform="translate(313.7 -46.5)" aria-label="5" style="line-height:1.25;-inkscape-font-specification:'Franklin Gothic Demi';text-align:end" font-size="11.3" font-family="Franklin Gothic Demi" text-anchor="end" stroke-width=".3"/><path d="M-56.7 124.6V123q2-.5 2.5-1.5h1.3v6.3h2v1.3h-6v-1.3h2.3v-4.3q-1.4.8-2.1 1z" transform="matrix(1.35998 0 0 1.35998 217 -28)" aria-label="1" style="line-height:1.25;-inkscape-font-specification:'Franklin Gothic Demi';text-align:end" font-size="11.3" font-family="Franklin Gothic Demi" text-anchor="end" stroke-width=".3"/><path d="m-51.3 143.5-.1 1.5h-5.7v-1.4l1-.7 2.2-1.8q.7-.7.7-1.3 0-.5-.3-.7-.3-.3-.7-.3-1.1 0-1.3 1.4l-1.6-.3q.6-2.5 3-2.5 1.3 0 2 .7t.7 1.7q0 1-.7 1.7-.8.8-2.8 2z" transform="translate(82 59.2)" aria-label="2" style="line-height:1.25;-inkscape-font-specification:'Franklin Gothic Demi';text-align:end" font-size="11.3" font-family="Franklin Gothic Demi" text-anchor="end" stroke-width=".3"/><path d="M-55.2 156.3h.8q.6 0 .9-.2l.2-.6q0-.4-.2-.7-.3-.2-.8-.2-.9 0-1.1 1l-1.6-.3q.2-.9 1-1.5.7-.5 1.8-.5t1.9.5q.7.5.7 1.5 0 1.2-1.2 1.7 1.5.4 1.5 1.7 0 1-.8 1.7-.8.6-2.1.6t-2.1-.6q-.8-.7-1-1.7l1.7-.2q.2 1.2 1.3 1.2.5 0 .9-.3.3-.3.3-.8 0-.4-.3-.7-.3-.2-1.1-.2h-.7z" transform="translate(139.9 43.4)" aria-label="3" style="line-height:1.25;-inkscape-font-specification:'Franklin Gothic Demi';text-align:end" font-size="11.3" font-family="Franklin Gothic Demi" text-anchor="end" stroke-width=".3"/><path d="m-51.3 143.5-.1 1.5h-5.7v-1.4l1-.7 2.2-1.8q.7-.7.7-1.3 0-.5-.3-.7-.3-.3-.7-.3-1.1 0-1.3 1.4l-1.6-.3q.6-2.5 3-2.5 1.3 0 2 .7t.7 1.7q0 1-.7 1.7-.8.8-2.8 2z" transform="translate(197.8 59.2)" aria-label="2" style="line-height:1.25;-inkscape-font-specification:'Franklin Gothic Demi';text-align:end" font-size="11.3" font-family="Franklin Gothic Demi" text-anchor="end" stroke-width=".3"/><path d="M-56.7 124.6V123q2-.5 2.5-1.5h1.3v6.3h2v1.3h-6v-1.3h2.3v-4.3q-1.4.8-2.1 1z" transform="translate(256 74.9)" aria-label="1" style="line-height:1.25;-inkscape-font-specification:'Franklin Gothic Demi';text-align:end" font-size="11.3" font-family="Franklin Gothic Demi" text-anchor="end" stroke-width=".3"/><path d="M-52.1 169.1v4.6h1v1.3h-1v1.8H-54V175h-3.3v-1.3l3-4.6zm-3.7 4.6h2V170.5z" transform="translate(314.2 27.5)" aria-label="4" style="line-height:1.25;-inkscape-font-specification:'Franklin Gothic Demi';text-align:end" font-size="11.3" font-family="Franklin Gothic Demi" text-anchor="end" stroke-width=".3"/><path d="M-56.7 124.6V123q2-.5 2.5-1.5h1.3v6.3h2v1.3h-6v-1.3h2.3v-4.3q-1.4.8-2.1 1z" transform="translate(81.8 133)" aria-label="1" style="line-height:1.25;-inkscape-font-specification:'Franklin Gothic Demi';text-align:end" font-size="11.3" font-family="Franklin Gothic Demi" text-anchor="end" stroke-width=".3"/><path d="M-51.7 186.7H-55l-.2 1.6q.7-.6 1.6-.6 1 0 1.8.7.7.6.7 1.7 0 1.2-.8 2-.7.7-2.1.7-2.4 0-3-2.2l1.7-.2q.2 1 1.2 1 .6 0 .9-.4.3-.3.3-.8t-.3-.8q-.4-.4-.9-.4-.7 0-1 .6l-1.5-.2.3-4.3h4.7z" transform="translate(139.9 69.6)" aria-label="5" style="line-height:1.25;-inkscape-font-specification:'Franklin Gothic Demi';text-align:end" font-size="11.3" font-family="Franklin Gothic Demi" text-anchor="end" stroke-width=".3"/><path d="M-52.1 169.1v4.6h1v1.3h-1v1.8H-54V175h-3.3v-1.3l3-4.6zm-3.7 4.6h2V170.5z" transform="translate(197.7 85.5)" aria-label="4" style="line-height:1.25;-inkscape-font-specification:'Franklin Gothic Demi';text-align:end" font-size="11.3" font-family="Franklin Gothic Demi" text-anchor="end" stroke-width=".3"/><path d="M-51.7 186.7H-55l-.2 1.6q.7-.6 1.6-.6 1 0 1.8.7.7.6.7 1.7 0 1.2-.8 2-.7.7-2.1.7-2.4 0-3-2.2l1.7-.2q.2 1 1.2 1 .6 0 .9-.4.3-.3.3-.8t-.3-.8q-.4-.4-.9-.4-.7 0-1 .6l-1.5-.2.3-4.3h4.7z" transform="translate(256.3 69.6)" aria-label="5" style="line-height:1.25;-inkscape-font-specification:'Franklin Gothic Demi';text-align:end" font-size="11.3" font-family="Franklin Gothic Demi" text-anchor="end" stroke-width=".3"/><path d="M-56.7 124.6V123q2-.5 2.5-1.5h1.3v6.3h2v1.3h-6v-1.3h2.3v-4.3q-1.4.8-2.1 1z" transform="translate(314 133)" aria-label="1" style="line-height:1.25;-inkscape-font-specification:'Franklin Gothic Demi';text-align:end" font-size="11.3" font-family="Franklin Gothic Demi" text-anchor="end" stroke-width=".3"/><path d="M-51.7 186.7H-55l-.2 1.6q.7-.6 1.6-.6 1 0 1.8.7.7.6.7 1.7 0 1.2-.8 2-.7.7-2.1.7-2.4 0-3-2.2l1.7-.2q.2 1 1.2 1 .6 0 .9-.4.3-.3.3-.8t-.3-.8q-.4-.4-.9-.4-.7 0-1 .6l-1.5-.2.3-4.3h4.7z" transform="translate(90.8 -171.7)" aria-label="5" style="line-height:1.25;-inkscape-font-specification:'Franklin Gothic Demi';text-align:end" font-size="11.3" font-family="Franklin Gothic Demi" text-anchor="end" stroke-width=".3"/><path d="M-51.7 186.7H-55l-.2 1.6q.7-.6 1.6-.6 1 0 1.8.7.7.6.7 1.7 0 1.2-.8 2-.7.7-2.1.7-2.4 0-3-2.2l1.7-.2q.2 1 1.2 1 .6 0 .9-.4.3-.3.3-.8t-.3-.8q-.4-.4-.9-.4-.7 0-1 .6l-1.5-.2.3-4.3h4.7z" transform="translate(206.5 -171.7)" aria-label="5" style="line-height:1.25;-inkscape-font-specification:'Franklin Gothic Demi';text-align:end" font-size="11.3" font-family="Franklin Gothic Demi" text-anchor="end" stroke-width=".3"/><path d="M-55.2 156.3h.8q.6 0 .9-.2l.2-.6q0-.4-.2-.7-.3-.2-.8-.2-.9 0-1.1 1l-1.6-.3q.2-.9 1-1.5.7-.5 1.8-.5t1.9.5q.7.5.7 1.5 0 1.2-1.2 1.7 1.5.4 1.5 1.7 0 1-.8 1.7-.8.6-2.1.6t-2.1-.6q-.8-.7-1-1.7l1.7-.2q.2 1.2 1.3 1.2.5 0 .9-.3.3-.3.3-.8 0-.4-.3-.7-.3-.2-1.1-.2h-.7z" transform="translate(148.7 -140)" aria-label="3" style="line-height:1.25;-inkscape-font-specification:'Franklin Gothic Demi';text-align:end" font-size="11.3" font-family="Franklin Gothic Demi" text-anchor="end" stroke-width=".3"/><path d="M-52.1 169.1v4.6h1v1.3h-1v1.8H-54V175h-3.3v-1.3l3-4.6zm-3.7 4.6h2V170.5z" transform="translate(264.6 -155.6)" aria-label="4" style="line-height:1.25;-inkscape-font-specification:'Franklin Gothic Demi';text-align:end" font-size="11.3" font-family="Franklin Gothic Demi" text-anchor="end" stroke-width=".3"/><path d="m-51.3 143.5-.1 1.5h-5.7v-1.4l1-.7 2.2-1.8q.7-.7.7-1.3 0-.5-.3-.7-.3-.3-.7-.3-1.1 0-1.3 1.4l-1.6-.3q.6-2.5 3-2.5 1.3 0 2 .7t.7 1.7q0 1-.7 1.7-.8.8-2.8 2z" transform="translate(323.4 -7.9)" aria-label="2" style="line-height:1.25;-inkscape-font-specification:'Franklin Gothic Demi';text-align:end" font-size="11.3" font-family="Franklin Gothic Demi" text-anchor="end" stroke-width=".3"/><path d="M-56.7 124.6V123q2-.5 2.5-1.5h1.3v6.3h2v1.3h-6v-1.3h2.3v-4.3q-1.4.8-2.1 1z" transform="translate(91 -50)" aria-label="1" style="line-height:1.25;-inkscape-font-specification:'Franklin Gothic Demi';text-align:end" font-size="11.3" font-family="Franklin Gothic Demi" text-anchor="end" stroke-width=".3"/><path d="m-51.3 143.5-.1 1.5h-5.7v-1.4l1-.7 2.2-1.8q.7-.7.7-1.3 0-.5-.3-.7-.3-.3-.7-.3-1.1 0-1.3 1.4l-1.6-.3q.6-2.5 3-2.5 1.3 0 2 .7t.7 1.7q0 1-.7 1.7-.8.8-2.8 2z" transform="translate(149 -65.7)" aria-label="2" style="line-height:1.25;-inkscape-font-specification:'Franklin Gothic Demi';text-align:end" font-size="11.3" font-family="Franklin Gothic Demi" text-anchor="end" stroke-width=".3"/><path d="M-55.2 156.3h.8q.6 0 .9-.2l.2-.6q0-.4-.2-.7-.3-.2-.8-.2-.9 0-1.1 1l-1.6-.3q.2-.9 1-1.5.7-.5 1.8-.5t1.9.5q.7.5.7 1.5 0 1.2-1.2 1.7 1.5.4 1.5 1.7 0 1-.8 1.7-.8.6-2.1.6t-2.1-.6q-.8-.7-1-1.7l1.7-.2q.2 1.2 1.3 1.2.5 0 .9-.3.3-.3.3-.8 0-.4-.3-.7-.3-.2-1.1-.2h-.7z" transform="translate(207 -81.7)" aria-label="3" style="line-height:1.25;-inkscape-font-specification:'Franklin Gothic Demi';text-align:end" font-size="11.3" font-family="Franklin Gothic Demi" text-anchor="end" stroke-width=".3"/><path d="M-56.7 124.6V123q2-.5 2.5-1.5h1.3v6.3h2v1.3h-6v-1.3h2.3v-4.3q-1.4.8-2.1 1z" transform="translate(264.8 -50.2)" aria-label="1" style="line-height:1.25;-inkscape-font-specification:'Franklin Gothic Demi';text-align:end" font-size="11.3" font-family="Franklin Gothic Demi" text-anchor="end" stroke-width=".3"/><path d="M-55.2 156.3h.8q.6 0 .9-.2l.2-.6q0-.4-.2-.7-.3-.2-.8-.2-.9 0-1.1 1l-1.6-.3q.2-.9 1-1.5.7-.5 1.8-.5t1.9.5q.7.5.7 1.5 0 1.2-1.2 1.7 1.5.4 1.5 1.7 0 1-.8 1.7-.8.6-2.1.6t-2.1-.6q-.8-.7-1-1.7l1.7-.2q.2 1.2 1.3 1.2.5 0 .9-.3.3-.3.3-.8 0-.4-.3-.7-.3-.2-1.1-.2h-.7z" transform="translate(323.5 -140)" aria-label="3" style="line-height:1.25;-inkscape-font-specification:'Franklin Gothic Demi';text-align:end" font-size="11.3" font-family="Franklin Gothic Demi" text-anchor="end" stroke-width=".3"/><path d="M-51.7 186.7H-55l-.2 1.6q.7-.6 1.6-.6 1 0 1.8.7.7.6.7 1.7 0 1.2-.8 2-.7.7-2.1.7-2.4 0-3-2.2l1.7-.2q.2 1 1.2 1 .6 0 .9-.4.3-.3.3-.8t-.3-.8q-.4-.4-.9-.4-.7 0-1 .6l-1.5-.2.3-4.3h4.7z" transform="translate(90.7 -55.1)" aria-label="5" style="line-height:1.25;-inkscape-font-specification:'Franklin Gothic Demi';text-align:end" font-size="11.3" font-family="Franklin Gothic Demi" text-anchor="end" stroke-width=".3"/><path d="M-55.2 156.3h.8q.6 0 .9-.2l.2-.6q0-.4-.2-.7-.3-.2-.8-.2-.9 0-1.1 1l-1.6-.3q.2-.9 1-1.5.7-.5 1.8-.5t1.9.5q.7.5.7 1.5 0 1.2-1.2 1.7 1.5.4 1.5 1.7 0 1-.8 1.7-.8.6-2.1.6t-2.1-.6q-.8-.7-1-1.7l1.7-.2q.2 1.2 1.3 1.2.5 0 .9-.3.3-.3.3-.8 0-.4-.3-.7-.3-.2-1.1-.2h-.7z" transform="translate(149.2 -23.5)" aria-label="3" style="line-height:1.25;-inkscape-font-specification:'Franklin Gothic Demi';text-align:end" font-size="11.3" font-family="Franklin Gothic Demi" text-anchor="end" stroke-width=".3"/><path d="m-51.3 143.5-.1 1.5h-5.7v-1.4l1-.7 2.2-1.8q.7-.7.7-1.3 0-.5-.3-.7-.3-.3-.7-.3-1.1 0-1.3 1.4l-1.6-.3q.6-2.5 3-2.5 1.3 0 2 .7t.7 1.7q0 1-.7 1.7-.8.8-2.8 2z" transform="translate(206.9 -8)" aria-label="2" style="line-height:1.25;-inkscape-font-specification:'Franklin Gothic Demi';text-align:end" font-size="11.3" font-family="Franklin Gothic Demi" text-anchor="end" stroke-width=".3"/><path d="M-55.2 156.3h.8q.6 0 .9-.2l.2-.6q0-.4-.2-.7-.3-.2-.8-.2-.9 0-1.1 1l-1.6-.3q.2-.9 1-1.5.7-.5 1.8-.5t1.9.5q.7.5.7 1.5 0 1.2-1.2 1.7 1.5.4 1.5 1.7 0 1-.8 1.7-.8.6-2.1.6t-2.1-.6q-.8-.7-1-1.7l1.7-.2q.2 1.2 1.3 1.2.5 0 .9-.3.3-.3.3-.8 0-.4-.3-.7-.3-.2-1.1-.2h-.7z" transform="translate(265.2 -23.7)" aria-label="3" style="line-height:1.25;-inkscape-font-specification:'Franklin Gothic Demi';text-align:end" font-size="11.3" font-family="Franklin Gothic Demi" text-anchor="end" stroke-width=".3"/><path d="M-51.7 186.7H-55l-.2 1.6q.7-.6 1.6-.6 1 0 1.8.7.7.6.7 1.7 0 1.2-.8 2-.7.7-2.1.7-2.4 0-3-2.2l1.7-.2q.2 1 1.2 1 .6 0 .9-.4.3-.3.3-.8t-.3-.8q-.4-.4-.9-.4-.7 0-1 .6l-1.5-.2.3-4.3h4.7z" transform="translate(323.3 -113.3)" aria-label="5" style="line-height:1.25;-inkscape-font-specification:'Franklin Gothic Demi';text-align:end" font-size="11.3" font-family="Franklin Gothic Demi" text-anchor="end" stroke-width=".3"/><path d="M-56.7 124.6V123q2-.5 2.5-1.5h1.3v6.3h2v1.3h-6v-1.3h2.3v-4.3q-1.4.8-2.1 1z" transform="translate(90.9 65.7)" aria-label="1" style="line-height:1.25;-inkscape-font-specification:'Franklin Gothic Demi';text-align:end" font-size="11.3" font-family="Franklin Gothic Demi" text-anchor="end" stroke-width=".3"/><path d="M-52.1 169.1v4.6h1v1.3h-1v1.8H-54V175h-3.3v-1.3l3-4.6zm-3.7 4.6h2V170.5z" transform="translate(148.9 18.4)" aria-label="4" style="line-height:1.25;-inkscape-font-specification:'Franklin Gothic Demi';text-align:end" font-size="11.3" font-family="Franklin Gothic Demi" text-anchor="end" stroke-width=".3"/><path d="M-56.7 124.6V123q2-.5 2.5-1.5h1.3v6.3h2v1.3h-6v-1.3h2.3v-4.3q-1.4.8-2.1 1z" transform="translate(323.4 65.7)" aria-label="1" style="line-height:1.25;-inkscape-font-specification:'Franklin Gothic Demi';text-align:end" font-size="11.3" font-family="Franklin Gothic Demi" text-anchor="end" stroke-width=".3"/><path d="M-51.7 186.7H-55l-.2 1.6q.7-.6 1.6-.6 1 0 1.8.7.7.6.7 1.7 0 1.2-.8 2-.7.7-2.1.7-2.4 0-3-2.2l1.7-.2q.2 1 1.2 1 .6 0 .9-.4.3-.3.3-.8t-.3-.8q-.4-.4-.9-.4-.7 0-1 .6l-1.5-.2.3-4.3h4.7z" transform="translate(206.7 2.5)" aria-label="5" style="line-height:1.25;-inkscape-font-specification:'Franklin Gothic Demi';text-align:end" font-size="11.3" font-family="Franklin Gothic Demi" text-anchor="end" stroke-width=".3"/><path d="m-51.3 143.5-.1 1.5h-5.7v-1.4l1-.7 2.2-1.8q.7-.7.7-1.3 0-.5-.3-.7-.3-.3-.7-.3-1.1 0-1.3 1.4l-1.6-.3q.6-2.5 3-2.5 1.3 0 2 .7t.7 1.7q0 1-.7 1.7-.8.8-2.8 2z" transform="translate(265.2 50)" aria-label="2" style="line-height:1.25;-inkscape-font-specification:'Franklin Gothic Demi';text-align:end" font-size="11.3" font-family="Franklin Gothic Demi" text-anchor="end" stroke-width=".3"/><path d="M-52.1 169.1v4.6h1v1.3h-1v1.8H-54V175h-3.3v-1.3l3-4.6zm-3.7 4.6h2V170.5z" transform="translate(91 76.3)" aria-label="4" style="line-height:1.25;-inkscape-font-specification:'Franklin Gothic Demi';text-align:end" font-size="11.3" font-family="Franklin Gothic Demi" text-anchor="end" stroke-width=".3"/><path d="M-55.2 156.3h.8q.6 0 .9-.2l.2-.6q0-.4-.2-.7-.3-.2-.8-.2-.9 0-1.1 1l-1.6-.3q.2-.9 1-1.5.7-.5 1.8-.5t1.9.5q.7.5.7 1.5 0 1.2-1.2 1.7 1.5.4 1.5 1.7 0 1-.8 1.7-.8.6-2.1.6t-2.1-.6q-.8-.7-1-1.7l1.7-.2q.2 1.2 1.3 1.2.5 0 .9-.3.3-.3.3-.8 0-.4-.3-.7-.3-.2-1.1-.2h-.7z" transform="translate(149 92)" aria-label="3" style="line-height:1.25;-inkscape-font-specification:'Franklin Gothic Demi';text-align:end" font-size="11.3" font-family="Franklin Gothic Demi" text-anchor="end" stroke-width=".3"/><path d="m-51.3 143.5-.1 1.5h-5.7v-1.4l1-.7 2.2-1.8q.7-.7.7-1.3 0-.5-.3-.7-.3-.3-.7-.3-1.1 0-1.3 1.4l-1.6-.3q.6-2.5 3-2.5 1.3 0 2 .7t.7 1.7q0 1-.7 1.7-.8.8-2.8 2z" transform="translate(206.9 108.2)" aria-label="2" style="line-height:1.25;-inkscape-font-specification:'Franklin Gothic Demi';text-align:end" font-size="11.3" font-family="Franklin Gothic Demi" text-anchor="end" stroke-width=".3"/><path d="M-56.7 124.6V123q2-.5 2.5-1.5h1.3v6.3h2v1.3h-6v-1.3h2.3v-4.3q-1.4.8-2.1 1z" transform="translate(265.2 123.9)" aria-label="1" style="line-height:1.25;-inkscape-font-specification:'Franklin Gothic Demi';text-align:end" font-size="11.3" font-family="Franklin Gothic Demi" text-anchor="end" stroke-width=".3"/><path d="m-51.3 143.5-.1 1.5h-5.7v-1.4l1-.7 2.2-1.8q.7-.7.7-1.3 0-.5-.3-.7-.3-.3-.7-.3-1.1 0-1.3 1.4l-1.6-.3q.6-2.5 3-2.5 1.3 0 2 .7t.7 1.7q0 1-.7 1.7-.8.8-2.8 2z" transform="translate(323.3 108.2)" aria-label="2" style="line-height:1.25;-inkscape-font-specification:'Franklin Gothic Demi';text-align:end" font-size="11.3" font-family="Franklin Gothic Demi" text-anchor="end" stroke-width=".3"/><path d="m-51.3 143.5-.1 1.5h-5.7v-1.4l1-.7 2.2-1.8q.7-.7.7-1.3 0-.5-.3-.7-.3-.3-.7-.3-1.1 0-1.3 1.4l-1.6-.3q.6-2.5 3-2.5 1.3 0 2 .7t.7 1.7q0 1-.7 1.7-.8.8-2.8 2z" transform="translate(99.9 -133)" aria-label="2" style="line-height:1.25;-inkscape-font-specification:'Franklin Gothic Demi';text-align:end" font-size="11.3" font-family="Franklin Gothic Demi" text-anchor="end" stroke-width=".3"/><path d="M-56.7 124.6V123q2-.5 2.5-1.5h1.3v6.3h2v1.3h-6v-1.3h2.3v-4.3q-1.4.8-2.1 1z" transform="translate(157.7 -117.5)" aria-label="1" style="line-height:1.25;-inkscape-font-specification:'Franklin Gothic Demi';text-align:end" font-size="11.3" font-family="Franklin Gothic Demi" text-anchor="end" stroke-width=".3"/><path d="M-55.2 156.3h.8q.6 0 .9-.2l.2-.6q0-.4-.2-.7-.3-.2-.8-.2-.9 0-1.1 1l-1.6-.3q.2-.9 1-1.5.7-.5 1.8-.5t1.9.5q.7.5.7 1.5 0 1.2-1.2 1.7 1.5.4 1.5 1.7 0 1-.8 1.7-.8.6-2.1.6t-2.1-.6q-.8-.7-1-1.7l1.7-.2q.2 1.2 1.3 1.2.5 0 .9-.3.3-.3.3-.8 0-.4-.3-.7-.3-.2-1.1-.2h-.7z" transform="translate(215.8 -148.8)" aria-label="3" style="line-height:1.25;-inkscape-font-specification:'Franklin Gothic Demi';text-align:end" font-size="11.3" font-family="Franklin Gothic Demi" text-anchor="end" stroke-width=".3"/><path d="M-51.7 186.7H-55l-.2 1.6q.7-.6 1.6-.6 1 0 1.8.7.7.6.7 1.7 0 1.2-.8 2-.7.7-2.1.7-2.4 0-3-2.2l1.7-.2q.2 1 1.2 1 .6 0 .9-.4.3-.3.3-.8t-.3-.8q-.4-.4-.9-.4-.7 0-1 .6l-1.5-.2.3-4.3h4.7z" transform="translate(274.1 -180.4)" aria-label="5" style="line-height:1.25;-inkscape-font-specification:'Franklin Gothic Demi';text-align:end" font-size="11.3" font-family="Franklin Gothic Demi" text-anchor="end" stroke-width=".3"/><path d="M-56.7 124.6V123q2-.5 2.5-1.5h1.3v6.3h2v1.3h-6v-1.3h2.3v-4.3q-1.4.8-2.1 1z" transform="translate(332 -117.5)" aria-label="1" style="line-height:1.25;-inkscape-font-specification:'Franklin Gothic Demi';text-align:end" font-size="11.3" font-family="Franklin Gothic Demi" text-anchor="end" stroke-width=".3"/><path d="M-52.1 169.1v4.6h1v1.3h-1v1.8H-54V175h-3.3v-1.3l3-4.6zm-3.7 4.6h2V170.5z" transform="translate(99.9 -106.7)" aria-label="4" style="line-height:1.25;-inkscape-font-specification:'Franklin Gothic Demi';text-align:end" font-size="11.3" font-family="Franklin Gothic Demi" text-anchor="end" stroke-width=".3"/><path d="M-55.2 156.3h.8q.6 0 .9-.2l.2-.6q0-.4-.2-.7-.3-.2-.8-.2-.9 0-1.1 1l-1.6-.3q.2-.9 1-1.5.7-.5 1.8-.5t1.9.5q.7.5.7 1.5 0 1.2-1.2 1.7 1.5.4 1.5 1.7 0 1-.8 1.7-.8.6-2.1.6t-2.1-.6q-.8-.7-1-1.7l1.7-.2q.2 1.2 1.3 1.2.5 0 .9-.3.3-.3.3-.8 0-.4-.3-.7-.3-.2-1.1-.2h-.7z" transform="translate(157.9 -90.8)" aria-label="3" style="line-height:1.25;-inkscape-font-specification:'Franklin Gothic Demi';text-align:end" font-size="11.3" font-family="Franklin Gothic Demi" text-anchor="end" stroke-width=".3"/><path d="M-52.1 169.1v4.6h1v1.3h-1v1.8H-54V175h-3.3v-1.3l3-4.6zm-3.7 4.6h2V170.5z" transform="translate(273.9 -106.7)" aria-label="4" style="line-height:1.25;-inkscape-font-specification:'Franklin Gothic Demi';text-align:end" font-size="11.3" font-family="Franklin Gothic Demi" text-anchor="end" stroke-width=".3"/><path d="M-51.7 186.7H-55l-.2 1.6q.7-.6 1.6-.6 1 0 1.8.7.7.6.7 1.7 0 1.2-.8 2-.7.7-2.1.7-2.4 0-3-2.2l1.7-.2q.2 1 1.2 1 .6 0 .9-.4.3-.3.3-.8t-.3-.8q-.4-.4-.9-.4-.7 0-1 .6l-1.5-.2.3-4.3h4.7z" transform="translate(215.8 -122.3)" aria-label="5" style="line-height:1.25;-inkscape-font-specification:'Franklin Gothic Demi';text-align:end" font-size="11.3" font-family="Franklin Gothic Demi" text-anchor="end" stroke-width=".3"/><path d="m-51.3 143.5-.1 1.5h-5.7v-1.4l1-.7 2.2-1.8q.7-.7.7-1.3 0-.5-.3-.7-.3-.3-.7-.3-1.1 0-1.3 1.4l-1.6-.3q.6-2.5 3-2.5 1.3 0 2 .7t.7 1.7q0 1-.7 1.7-.8.8-2.8 2z" transform="translate(332.5 -74.7)" aria-label="2" style="line-height:1.25;-inkscape-font-specification:'Franklin Gothic Demi';text-align:end" font-size="11.3" font-family="Franklin Gothic Demi" text-anchor="end" stroke-width=".3"/><path d="m-51.3 143.5-.1 1.5h-5.7v-1.4l1-.7 2.2-1.8q.7-.7.7-1.3 0-.5-.3-.7-.3-.3-.7-.3-1.1 0-1.3 1.4l-1.6-.3q.6-2.5 3-2.5 1.3 0 2 .7t.7 1.7q0 1-.7 1.7-.8.8-2.8 2z" transform="translate(99.9 -17)" aria-label="2" style="line-height:1.25;-inkscape-font-specification:'Franklin Gothic Demi';text-align:end" font-size="11.3" font-family="Franklin Gothic Demi" text-anchor="end" stroke-width=".3"/><path d="M-52.1 169.1v4.6h1v1.3h-1v1.8H-54V175h-3.3v-1.3l3-4.6zm-3.7 4.6h2V170.5z" transform="translate(157.4 -49)" aria-label="4" style="line-height:1.25;-inkscape-font-specification:'Franklin Gothic Demi';text-align:end" font-size="11.3" font-family="Franklin Gothic Demi" text-anchor="end" stroke-width=".3"/><path d="M-55.2 156.3h.8q.6 0 .9-.2l.2-.6q0-.4-.2-.7-.3-.2-.8-.2-.9 0-1.1 1l-1.6-.3q.2-.9 1-1.5.7-.5 1.8-.5t1.9.5q.7.5.7 1.5 0 1.2-1.2 1.7 1.5.4 1.5 1.7 0 1-.8 1.7-.8.6-2.1.6t-2.1-.6q-.8-.7-1-1.7l1.7-.2q.2 1.2 1.3 1.2.5 0 .9-.3.3-.3.3-.8 0-.4-.3-.7-.3-.2-1.1-.2h-.7z" transform="translate(216 -32.9)" aria-label="3" style="line-height:1.25;-inkscape-font-specification:'Franklin Gothic Demi';text-align:end" font-size="11.3" font-family="Franklin Gothic Demi" text-anchor="end" stroke-width=".3"/><path d="m-51.3 143.5-.1 1.5h-5.7v-1.4l1-.7 2.2-1.8q.7-.7.7-1.3 0-.5-.3-.7-.3-.3-.7-.3-1.1 0-1.3 1.4l-1.6-.3q.6-2.5 3-2.5 1.3 0 2 .7t.7 1.7q0 1-.7 1.7-.8.8-2.8 2z" transform="translate(274 -17)" aria-label="2" style="line-height:1.25;-inkscape-font-specification:'Franklin Gothic Demi';text-align:end" font-size="11.3" font-family="Franklin Gothic Demi" text-anchor="end" stroke-width=".3"/><path d="M-55.2 156.3h.8q.6 0 .9-.2l.2-.6q0-.4-.2-.7-.3-.2-.8-.2-.9 0-1.1 1l-1.6-.3q.2-.9 1-1.5.7-.5 1.8-.5t1.9.5q.7.5.7 1.5 0 1.2-1.2 1.7 1.5.4 1.5 1.7 0 1-.8 1.7-.8.6-2.1.6t-2.1-.6q-.8-.7-1-1.7l1.7-.2q.2 1.2 1.3 1.2.5 0 .9-.3.3-.3.3-.8 0-.4-.3-.7-.3-.2-1.1-.2h-.7z" transform="translate(332.1 -33)" aria-label="3" style="line-height:1.25;-inkscape-font-specification:'Franklin Gothic Demi';text-align:end" font-size="11.3" font-family="Franklin Gothic Demi" text-anchor="end" stroke-width=".3"/><path d="M-52.1 169.1v4.6h1v1.3h-1v1.8H-54V175h-3.3v-1.3l3-4.6zm-3.7 4.6h2V170.5z" transform="translate(100 9.3)" aria-label="4" style="line-height:1.25;-inkscape-font-specification:'Franklin Gothic Demi';text-align:end" font-size="11.3" font-family="Franklin Gothic Demi" text-anchor="end" stroke-width=".3"/><path d="M-56.7 124.6V123q2-.5 2.5-1.5h1.3v6.3h2v1.3h-6v-1.3h2.3v-4.3q-1.4.8-2.1 1z" transform="translate(157.8 56.4)" aria-label="1" style="line-height:1.25;-inkscape-font-specification:'Franklin Gothic Demi';text-align:end" font-size="11.3" font-family="Franklin Gothic Demi" text-anchor="end" stroke-width=".3"/><path d="m-51.3 143.5-.1 1.5h-5.7v-1.4l1-.7 2.2-1.8q.7-.7.7-1.3 0-.5-.3-.7-.3-.3-.7-.3-1.1 0-1.3 1.4l-1.6-.3q.6-2.5 3-2.5 1.3 0 2 .7t.7 1.7q0 1-.7 1.7-.8.8-2.8 2z" transform="translate(215.8 40.7)" aria-label="2" style="line-height:1.25;-inkscape-font-specification:'Franklin Gothic Demi';text-align:end" font-size="11.3" font-family="Franklin Gothic Demi" text-anchor="end" stroke-width=".3"/><path d="M-52.1 169.1v4.6h1v1.3h-1v1.8H-54V175h-3.3v-1.3l3-4.6zm-3.7 4.6h2V170.5z" transform="translate(274.1 9.6)" aria-label="4" style="line-height:1.25;-inkscape-font-specification:'Franklin Gothic Demi';text-align:end" font-size="11.3" font-family="Franklin Gothic Demi" text-anchor="end" stroke-width=".3"/><path d="m-51.3 143.5-.1 1.5h-5.7v-1.4l1-.7 2.2-1.8q.7-.7.7-1.3 0-.5-.3-.7-.3-.3-.7-.3-1.1 0-1.3 1.4l-1.6-.3q.6-2.5 3-2.5 1.3 0 2 .7t.7 1.7q0 1-.7 1.7-.8.8-2.8 2z" transform="translate(332.3 41.2)" aria-label="2" style="line-height:1.25;-inkscape-font-specification:'Franklin Gothic Demi';text-align:end" font-size="11.3" font-family="Franklin Gothic Demi" text-anchor="end" stroke-width=".3"/><path d="M-55.2 156.3h.8q.6 0 .9-.2l.2-.6q0-.4-.2-.7-.3-.2-.8-.2-.9 0-1.1 1l-1.6-.3q.2-.9 1-1.5.7-.5 1.8-.5t1.9.5q.7.5.7 1.5 0 1.2-1.2 1.7 1.5.4 1.5 1.7 0 1-.8 1.7-.8.6-2.1.6t-2.1-.6q-.8-.7-1-1.7l1.7-.2q.2 1.2 1.3 1.2.5 0 .9-.3.3-.3.3-.8 0-.4-.3-.7-.3-.2-1.1-.2h-.7z" transform="translate(100.2 83)" aria-label="3" style="line-height:1.25;-inkscape-font-specification:'Franklin Gothic Demi';text-align:end" font-size="11.3" font-family="Franklin Gothic Demi" text-anchor="end" stroke-width=".3"/><path d="M-56.7 124.6V123q2-.5 2.5-1.5h1.3v6.3h2v1.3h-6v-1.3h2.3v-4.3q-1.4.8-2.1 1z" transform="translate(216 114.6)" aria-label="1" style="line-height:1.25;-inkscape-font-specification:'Franklin Gothic Demi';text-align:end" font-size="11.3" font-family="Franklin Gothic Demi" text-anchor="end" stroke-width=".3"/><path d="M-51.7 186.7H-55l-.2 1.6q.7-.6 1.6-.6 1 0 1.8.7.7.6.7 1.7 0 1.2-.8 2-.7.7-2.1.7-2.4 0-3-2.2l1.7-.2q.2 1 1.2 1 .6 0 .9-.4.3-.3.3-.8t-.3-.8q-.4-.4-.9-.4-.7 0-1 .6l-1.5-.2.3-4.3h4.7z" transform="translate(274.3 51.3)" aria-label="5" style="line-height:1.25;-inkscape-font-specification:'Franklin Gothic Demi';text-align:end" font-size="11.3" font-family="Franklin Gothic Demi" text-anchor="end" stroke-width=".3"/><path d="M-52.1 169.1v4.6h1v1.3h-1v1.8H-54V175h-3.3v-1.3l3-4.6zm-3.7 4.6h2V170.5z" transform="translate(332.1 66.8)" aria-label="4" style="line-height:1.25;-inkscape-font-specification:'Franklin Gothic Demi';text-align:end" font-size="11.3" font-family="Franklin Gothic Demi" text-anchor="end" stroke-width=".3"/><path d="M-52.1 169.1v4.6h1v1.3h-1v1.8H-54V175h-3.3v-1.3l3-4.6zm-3.7 4.6h2V170.5z" transform="translate(72.2 -137.3)" aria-label="4" style="line-height:1.25;-inkscape-font-specification:'Franklin Gothic Demi';text-align:end" font-size="11.3" font-family="Franklin Gothic Demi" text-anchor="end" stroke-width=".3"/><path d="m-51.3 143.5-.1 1.5h-5.7v-1.4l1-.7 2.2-1.8q.7-.7.7-1.3 0-.5-.3-.7-.3-.3-.7-.3-1.1 0-1.3 1.4l-1.6-.3q.6-2.5 3-2.5 1.3 0 2 .7t.7 1.7q0 1-.7 1.7-.8.8-2.8 2z" transform="translate(130.2 -105.6)" aria-label="2" style="line-height:1.25;-inkscape-font-specification:'Franklin Gothic Demi';text-align:end" font-size="11.3" font-family="Franklin Gothic Demi" text-anchor="end" stroke-width=".3"/><path d="M-51.7 186.7H-55l-.2 1.6q.7-.6 1.6-.6 1 0 1.8.7.7.6.7 1.7 0 1.2-.8 2-.7.7-2.1.7-2.4 0-3-2.2l1.7-.2q.2 1 1.2 1 .6 0 .9-.4.3-.3.3-.8t-.3-.8q-.4-.4-.9-.4-.7 0-1 .6l-1.5-.2.3-4.3h4.7z" transform="translate(188 -153)" aria-label="5" style="line-height:1.25;-inkscape-font-specification:'Franklin Gothic Demi';text-align:end" font-size="11.3" font-family="Franklin Gothic Demi" text-anchor="end" stroke-width=".3"/><path d="M-52.1 169.1v4.6h1v1.3h-1v1.8H-54V175h-3.3v-1.3l3-4.6zm-3.7 4.6h2V170.5z" transform="translate(246.2 -137)" aria-label="4" style="line-height:1.25;-inkscape-font-specification:'Franklin Gothic Demi';text-align:end" font-size="11.3" font-family="Franklin Gothic Demi" text-anchor="end" stroke-width=".3"/><path d="M-56.7 124.6V123q2-.5 2.5-1.5h1.3v6.3h2v1.3h-6v-1.3h2.3v-4.3q-1.4.8-2.1 1z" transform="translate(304.5 -89.5)" aria-label="1" style="line-height:1.25;-inkscape-font-specification:'Franklin Gothic Demi';text-align:end" font-size="11.3" font-family="Franklin Gothic Demi" text-anchor="end" stroke-width=".3"/><path d="M-55.2 156.3h.8q.6 0 .9-.2l.2-.6q0-.4-.2-.7-.3-.2-.8-.2-.9 0-1.1 1l-1.6-.3q.2-.9 1-1.5.7-.5 1.8-.5t1.9.5q.7.5.7 1.5 0 1.2-1.2 1.7 1.5.4 1.5 1.7 0 1-.8 1.7-.8.6-2.1.6t-2.1-.6q-.8-.7-1-1.7l1.7-.2q.2 1.2 1.3 1.2.5 0 .9-.3.3-.3.3-.8 0-.4-.3-.7-.3-.2-1.1-.2h-.7z" transform="translate(72.4 -63.2)" aria-label="3" style="line-height:1.25;-inkscape-font-specification:'Franklin Gothic Demi';text-align:end" font-size="11.3" font-family="Franklin Gothic Demi" text-anchor="end" stroke-width=".3"/><path d="M-51.7 186.7H-55l-.2 1.6q.7-.6 1.6-.6 1 0 1.8.7.7.6.7 1.7 0 1.2-.8 2-.7.7-2.1.7-2.4 0-3-2.2l1.7-.2q.2 1 1.2 1 .6 0 .9-.4.3-.3.3-.8t-.3-.8q-.4-.4-.9-.4-.7 0-1 .6l-1.5-.2.3-4.3h4.7z" transform="translate(130 -94.7)" aria-label="5" style="line-height:1.25;-inkscape-font-specification:'Franklin Gothic Demi';text-align:end" font-size="11.3" font-family="Franklin Gothic Demi" text-anchor="end" stroke-width=".3"/><path d="M-52.1 169.1v4.6h1v1.3h-1v1.8H-54V175h-3.3v-1.3l3-4.6zm-3.7 4.6h2V170.5z" transform="translate(188 -78.6)" aria-label="4" style="line-height:1.25;-inkscape-font-specification:'Franklin Gothic Demi';text-align:end" font-size="11.3" font-family="Franklin Gothic Demi" text-anchor="end" stroke-width=".3"/><path d="M-51.7 186.7H-55l-.2 1.6q.7-.6 1.6-.6 1 0 1.8.7.7.6.7 1.7 0 1.2-.8 2-.7.7-2.1.7-2.4 0-3-2.2l1.7-.2q.2 1 1.2 1 .6 0 .9-.4.3-.3.3-.8t-.3-.8q-.4-.4-.9-.4-.7 0-1 .6l-1.5-.2.3-4.3h4.7z" transform="translate(246.3 -94.8)" aria-label="5" style="line-height:1.25;-inkscape-font-specification:'Franklin Gothic Demi';text-align:end" font-size="11.3" font-family="Franklin Gothic Demi" text-anchor="end" stroke-width=".3"/><path d="M-52.1 169.1v4.6h1v1.3h-1v1.8H-54V175h-3.3v-1.3l3-4.6zm-3.7 4.6h2V170.5z" transform="translate(304.5 -78.6)" aria-label="4" style="line-height:1.25;-inkscape-font-specification:'Franklin Gothic Demi';text-align:end" font-size="11.3" font-family="Franklin Gothic Demi" text-anchor="end" stroke-width=".3"/><path d="M-56.7 124.6V123q2-.5 2.5-1.5h1.3v6.3h2v1.3h-6v-1.3h2.3v-4.3q-1.4.8-2.1 1z" transform="translate(72.4 26.6)" aria-label="1" style="line-height:1.25;-inkscape-font-specification:'Franklin Gothic Demi';text-align:end" font-size="11.3" font-family="Franklin Gothic Demi" text-anchor="end" stroke-width=".3"/><path d="m-51.3 143.5-.1 1.5h-5.7v-1.4l1-.7 2.2-1.8q.7-.7.7-1.3 0-.5-.3-.7-.3-.3-.7-.3-1.1 0-1.3 1.4l-1.6-.3q.6-2.5 3-2.5 1.3 0 2 .7t.7 1.7q0 1-.7 1.7-.8.8-2.8 2z" transform="translate(130 11)" aria-label="2" style="line-height:1.25;-inkscape-font-specification:'Franklin Gothic Demi';text-align:end" font-size="11.3" font-family="Franklin Gothic Demi" text-anchor="end" stroke-width=".3"/><path d="M-55.2 156.3h.8q.6 0 .9-.2l.2-.6q0-.4-.2-.7-.3-.2-.8-.2-.9 0-1.1 1l-1.6-.3q.2-.9 1-1.5.7-.5 1.8-.5t1.9.5q.7.5.7 1.5 0 1.2-1.2 1.7 1.5.4 1.5 1.7 0 1-.8 1.7-.8.6-2.1.6t-2.1-.6q-.8-.7-1-1.7l1.7-.2q.2 1.2 1.3 1.2.5 0 .9-.3.3-.3.3-.8 0-.4-.3-.7-.3-.2-1.1-.2h-.7z" transform="translate(188.2 -5.2)" aria-label="3" style="line-height:1.25;-inkscape-font-specification:'Franklin Gothic Demi';text-align:end" font-size="11.3" font-family="Franklin Gothic Demi" text-anchor="end" stroke-width=".3"/><path d="M-56.7 124.6V123q2-.5 2.5-1.5h1.3v6.3h2v1.3h-6v-1.3h2.3v-4.3q-1.4.8-2.1 1z" transform="translate(246.5 26.6)" aria-label="1" style="line-height:1.25;-inkscape-font-specification:'Franklin Gothic Demi';text-align:end" font-size="11.3" font-family="Franklin Gothic Demi" text-anchor="end" stroke-width=".3"/><path d="M-55.2 156.3h.8q.6 0 .9-.2l.2-.6q0-.4-.2-.7-.3-.2-.8-.2-.9 0-1.1 1l-1.6-.3q.2-.9 1-1.5.7-.5 1.8-.5t1.9.5q.7.5.7 1.5 0 1.2-1.2 1.7 1.5.4 1.5 1.7 0 1-.8 1.7-.8.6-2.1.6t-2.1-.6q-.8-.7-1-1.7l1.7-.2q.2 1.2 1.3 1.2.5 0 .9-.3.3-.3.3-.8 0-.4-.3-.7-.3-.2-1.1-.2h-.7z" transform="translate(304.6 -5.2)" aria-label="3" style="line-height:1.25;-inkscape-font-specification:'Franklin Gothic Demi';text-align:end" font-size="11.3" font-family="Franklin Gothic Demi" text-anchor="end" stroke-width=".3"/><path d="M-55.2 156.3h.8q.6 0 .9-.2l.2-.6q0-.4-.2-.7-.3-.2-.8-.2-.9 0-1.1 1l-1.6-.3q.2-.9 1-1.5.7-.5 1.8-.5t1.9.5q.7.5.7 1.5 0 1.2-1.2 1.7 1.5.4 1.5 1.7 0 1-.8 1.7-.8.6-2.1.6t-2.1-.6q-.8-.7-1-1.7l1.7-.2q.2 1.2 1.3 1.2.5 0 .9-.3.3-.3.3-.8 0-.4-.3-.7-.3-.2-1.1-.2h-.7z" transform="translate(72.4 52.7)" aria-label="3" style="line-height:1.25;-inkscape-font-specification:'Franklin Gothic Demi';text-align:end" font-size="11.3" font-family="Franklin Gothic Demi" text-anchor="end" stroke-width=".3"/><path d="M-56.7 124.6V123q2-.5 2.5-1.5h1.3v6.3h2v1.3h-6v-1.3h2.3v-4.3q-1.4.8-2.1 1z" transform="translate(130 84)" aria-label="1" style="line-height:1.25;-inkscape-font-specification:'Franklin Gothic Demi';text-align:end" font-size="11.3" font-family="Franklin Gothic Demi" text-anchor="end" stroke-width=".3"/><path d="M-51.7 186.7H-55l-.2 1.6q.7-.6 1.6-.6 1 0 1.8.7.7.6.7 1.7 0 1.2-.8 2-.7.7-2.1.7-2.4 0-3-2.2l1.7-.2q.2 1 1.2 1 .6 0 .9-.4.3-.3.3-.8t-.3-.8q-.4-.4-.9-.4-.7 0-1 .6l-1.5-.2.3-4.3h4.7z" transform="translate(188.2 21.3)" aria-label="5" style="line-height:1.25;-inkscape-font-specification:'Franklin Gothic Demi';text-align:end" font-size="11.3" font-family="Franklin Gothic Demi" text-anchor="end" stroke-width=".3"/><path d="M-52.1 169.1v4.6h1v1.3h-1v1.8H-54V175h-3.3v-1.3l3-4.6zm-3.7 4.6h2V170.5z" transform="translate(72.4 94.8)" aria-label="4" style="line-height:1.25;-inkscape-font-specification:'Franklin Gothic Demi';text-align:end" font-size="11.3" font-family="Franklin Gothic Demi" text-anchor="end" stroke-width=".3"/><path d="m-51.3 143.5-.1 1.5h-5.7v-1.4l1-.7 2.2-1.8q.7-.7.7-1.3 0-.5-.3-.7-.3-.3-.7-.3-1.1 0-1.3 1.4l-1.6-.3q.6-2.5 3-2.5 1.3 0 2 .7t.7 1.7q0 1-.7 1.7-.8.8-2.8 2z" transform="translate(130.3 126.6)" aria-label="2" style="line-height:1.25;-inkscape-font-specification:'Franklin Gothic Demi';text-align:end" font-size="11.3" font-family="Franklin Gothic Demi" text-anchor="end" stroke-width=".3"/><path d="M-56.7 124.6V123q2-.5 2.5-1.5h1.3v6.3h2v1.3h-6v-1.3h2.3v-4.3q-1.4.8-2.1 1z" transform="translate(188.2 142.3)" aria-label="1" style="line-height:1.25;-inkscape-font-specification:'Franklin Gothic Demi';text-align:end" font-size="11.3" font-family="Franklin Gothic Demi" text-anchor="end" stroke-width=".3"/><path d="M-55.2 156.3h.8q.6 0 .9-.2l.2-.6q0-.4-.2-.7-.3-.2-.8-.2-.9 0-1.1 1l-1.6-.3q.2-.9 1-1.5.7-.5 1.8-.5t1.9.5q.7.5.7 1.5 0 1.2-1.2 1.7 1.5.4 1.5 1.7 0 1-.8 1.7-.8.6-2.1.6t-2.1-.6q-.8-.7-1-1.7l1.7-.2q.2 1.2 1.3 1.2.5 0 .9-.3.3-.3.3-.8 0-.4-.3-.7-.3-.2-1.1-.2h-.7z" transform="translate(246.9 110.5)" aria-label="3" style="line-height:1.25;-inkscape-font-specification:'Franklin Gothic Demi';text-align:end" font-size="11.3" font-family="Franklin Gothic Demi" text-anchor="end" stroke-width=".3"/><path d="M-52.1 169.1v4.6h1v1.3h-1v1.8H-54V175h-3.3v-1.3l3-4.6zm-3.7 4.6h2V170.5z" transform="translate(304.7 94.7)" aria-label="4" style="line-height:1.25;-inkscape-font-specification:'Franklin Gothic Demi';text-align:end" font-size="11.3" font-family="Franklin Gothic Demi" text-anchor="end" stroke-width=".3"/><path d="M-56.7 124.6V123q2-.5 2.5-1.5h1.3v6.3h2v1.3h-6v-1.3h2.3v-4.3q-1.4.8-2.1 1z" transform="translate(304.7 84)" aria-label="1" style="line-height:1.25;-inkscape-font-specification:'Franklin Gothic Demi';text-align:end" font-size="11.3" font-family="Franklin Gothic Demi" text-anchor="end" stroke-width=".3"/><path d="m-51.3 143.5-.1 1.5h-5.7v-1.4l1-.7 2.2-1.8q.7-.7.7-1.3 0-.5-.3-.7-.3-.3-.7-.3-1.1 0-1.3 1.4l-1.6-.3q.6-2.5 3-2.5 1.3 0 2 .7t.7 1.7q0 1-.7 1.7-.8.8-2.8 2z" transform="translate(246.7 68.5)" aria-label="2" style="line-height:1.25;-inkscape-font-specification:'Franklin Gothic Demi';text-align:end" font-size="11.3" font-family="Franklin Gothic Demi" text-anchor="end" stroke-width=".3"/><path d="M-56.7 124.6V123q2-.5 2.5-1.5h1.3v6.3h2v1.3h-6v-1.3h2.3v-4.3q-1.4.8-2.1 1z" transform="translate(62.6 -80.4)" aria-label="1" style="line-height:1.25;-inkscape-font-specification:'Franklin Gothic Demi';text-align:end" font-size="11.3" font-family="Franklin Gothic Demi" text-anchor="end" stroke-width=".3"/><path d="M-55.2 156.3h.8q.6 0 .9-.2l.2-.6q0-.4-.2-.7-.3-.2-.8-.2-.9 0-1.1 1l-1.6-.3q.2-.9 1-1.5.7-.5 1.8-.5t1.9.5q.7.5.7 1.5 0 1.2-1.2 1.7 1.5.4 1.5 1.7 0 1-.8 1.7-.8.6-2.1.6t-2.1-.6q-.8-.7-1-1.7l1.7-.2q.2 1.2 1.3 1.2.5 0 .9-.3.3-.3.3-.8 0-.4-.3-.7-.3-.2-1.1-.2h-.7z" transform="translate(120.7 -112)" aria-label="3" style="line-height:1.25;-inkscape-font-specification:'Franklin Gothic Demi';text-align:end" font-size="11.3" font-family="Franklin Gothic Demi" text-anchor="end" stroke-width=".3"/><path d="M-52.1 169.1v4.6h1v1.3h-1v1.8H-54V175h-3.3v-1.3l3-4.6zm-3.7 4.6h2V170.5z" transform="translate(178.5 -127.7)" aria-label="4" style="line-height:1.25;-inkscape-font-specification:'Franklin Gothic Demi';text-align:end" font-size="11.3" font-family="Franklin Gothic Demi" text-anchor="end" stroke-width=".3"/><path d="M-51.7 186.7H-55l-.2 1.6q.7-.6 1.6-.6 1 0 1.8.7.7.6.7 1.7 0 1.2-.8 2-.7.7-2.1.7-2.4 0-3-2.2l1.7-.2q.2 1 1.2 1 .6 0 .9-.4.3-.3.3-.8t-.3-.8q-.4-.4-.9-.4-.7 0-1 .6l-1.5-.2.3-4.3h4.7z" transform="translate(236.8 -143.7)" aria-label="5" style="line-height:1.25;-inkscape-font-specification:'Franklin Gothic Demi';text-align:end" font-size="11.3" font-family="Franklin Gothic Demi" text-anchor="end" stroke-width=".3"/><path d="m-51.3 143.5-.1 1.5h-5.7v-1.4l1-.7 2.2-1.8q.7-.7.7-1.3 0-.5-.3-.7-.3-.3-.7-.3-1.1 0-1.3 1.4l-1.6-.3q.6-2.5 3-2.5 1.3 0 2 .7t.7 1.7q0 1-.7 1.7-.8.8-2.8 2z" transform="translate(295 -96.1)" aria-label="2" style="line-height:1.25;-inkscape-font-specification:'Franklin Gothic Demi';text-align:end" font-size="11.3" font-family="Franklin Gothic Demi" text-anchor="end" stroke-width=".3"/><path d="M-52.1 169.1v4.6h1v1.3h-1v1.8H-54V175h-3.3v-1.3l3-4.6zm-3.7 4.6h2V170.5z" transform="translate(62.6 -70)" aria-label="4" style="line-height:1.25;-inkscape-font-specification:'Franklin Gothic Demi';text-align:end" font-size="11.3" font-family="Franklin Gothic Demi" text-anchor="end" stroke-width=".3"/><path d="m-51.3 143.5-.1 1.5h-5.7v-1.4l1-.7 2.2-1.8q.7-.7.7-1.3 0-.5-.3-.7-.3-.3-.7-.3-1.1 0-1.3 1.4l-1.6-.3q.6-2.5 3-2.5 1.3 0 2 .7t.7 1.7q0 1-.7 1.7-.8.8-2.8 2z" transform="translate(120.6 -38)" aria-label="2" style="line-height:1.25;-inkscape-font-specification:'Franklin Gothic Demi';text-align:end" font-size="11.3" font-family="Franklin Gothic Demi" text-anchor="end" stroke-width=".3"/><path d="M-51.7 186.7H-55l-.2 1.6q.7-.6 1.6-.6 1 0 1.8.7.7.6.7 1.7 0 1.2-.8 2-.7.7-2.1.7-2.4 0-3-2.2l1.7-.2q.2 1 1.2 1 .6 0 .9-.4.3-.3.3-.8t-.3-.8q-.4-.4-.9-.4-.7 0-1 .6l-1.5-.2.3-4.3h4.7z" transform="translate(178.5 -85.5)" aria-label="5" style="line-height:1.25;-inkscape-font-specification:'Franklin Gothic Demi';text-align:end" font-size="11.3" font-family="Franklin Gothic Demi" text-anchor="end" stroke-width=".3"/><path d="m-51.3 143.5-.1 1.5h-5.7v-1.4l1-.7 2.2-1.8q.7-.7.7-1.3 0-.5-.3-.7-.3-.3-.7-.3-1.1 0-1.3 1.4l-1.6-.3q.6-2.5 3-2.5 1.3 0 2 .7t.7 1.7q0 1-.7 1.7-.8.8-2.8 2z" transform="translate(237 -38)" aria-label="2" style="line-height:1.25;-inkscape-font-specification:'Franklin Gothic Demi';text-align:end" font-size="11.3" font-family="Franklin Gothic Demi" text-anchor="end" stroke-width=".3"/><path d="M-56.7 124.6V123q2-.5 2.5-1.5h1.3v6.3h2v1.3h-6v-1.3h2.3v-4.3q-1.4.8-2.1 1z" transform="translate(295 -22.4)" aria-label="1" style="line-height:1.25;-inkscape-font-specification:'Franklin Gothic Demi';text-align:end" font-size="11.3" font-family="Franklin Gothic Demi" text-anchor="end" stroke-width=".3"/><path d="m-51.3 143.5-.1 1.5h-5.7v-1.4l1-.7 2.2-1.8q.7-.7.7-1.3 0-.5-.3-.7-.3-.3-.7-.3-1.1 0-1.3 1.4l-1.6-.3q.6-2.5 3-2.5 1.3 0 2 .7t.7 1.7q0 1-.7 1.7-.8.8-2.8 2z" transform="translate(62.9 20)" aria-label="2" style="line-height:1.25;-inkscape-font-specification:'Franklin Gothic Demi';text-align:end" font-size="11.3" font-family="Franklin Gothic Demi" text-anchor="end" stroke-width=".3"/><path d="M-55.2 156.3h.8q.6 0 .9-.2l.2-.6q0-.4-.2-.7-.3-.2-.8-.2-.9 0-1.1 1l-1.6-.3q.2-.9 1-1.5.7-.5 1.8-.5t1.9.5q.7.5.7 1.5 0 1.2-1.2 1.7 1.5.4 1.5 1.7 0 1-.8 1.7-.8.6-2.1.6t-2.1-.6q-.8-.7-1-1.7l1.7-.2q.2 1.2 1.3 1.2.5 0 .9-.3.3-.3.3-.8 0-.4-.3-.7-.3-.2-1.1-.2h-.7z" transform="translate(120.5 4.3)" aria-label="3" style="line-height:1.25;-inkscape-font-specification:'Franklin Gothic Demi';text-align:end" font-size="11.3" font-family="Franklin Gothic Demi" text-anchor="end" stroke-width=".3"/><path d="M-56.7 124.6V123q2-.5 2.5-1.5h1.3v6.3h2v1.3h-6v-1.3h2.3v-4.3q-1.4.8-2.1 1z" transform="translate(178.4 35.5)" aria-label="1" style="line-height:1.25;-inkscape-font-specification:'Franklin Gothic Demi';text-align:end" font-size="11.3" font-family="Franklin Gothic Demi" text-anchor="end" stroke-width=".3"/><path d="M-52.1 169.1v4.6h1v1.3h-1v1.8H-54V175h-3.3v-1.3l3-4.6zm-3.7 4.6h2V170.5z" transform="translate(236.7 -12)" aria-label="4" style="line-height:1.25;-inkscape-font-specification:'Franklin Gothic Demi';text-align:end" font-size="11.3" font-family="Franklin Gothic Demi" text-anchor="end" stroke-width=".3"/><path d="M-51.7 186.7H-55l-.2 1.6q.7-.6 1.6-.6 1 0 1.8.7.7.6.7 1.7 0 1.2-.8 2-.7.7-2.1.7-2.4 0-3-2.2l1.7-.2q.2 1 1.2 1 .6 0 .9-.4.3-.3.3-.8t-.3-.8q-.4-.4-.9-.4-.7 0-1 .6l-1.5-.2.3-4.3h4.7z" transform="translate(294.6 -27.9)" aria-label="5" style="line-height:1.25;-inkscape-font-specification:'Franklin Gothic Demi';text-align:end" font-size="11.3" font-family="Franklin Gothic Demi" text-anchor="end" stroke-width=".3"/><path d="M-56.7 124.6V123q2-.5 2.5-1.5h1.3v6.3h2v1.3h-6v-1.3h2.3v-4.3q-1.4.8-2.1 1z" transform="translate(62.6 93.7)" aria-label="1" style="line-height:1.25;-inkscape-font-specification:'Franklin Gothic Demi';text-align:end" font-size="11.3" font-family="Franklin Gothic Demi" text-anchor="end" stroke-width=".3"/><path d="M-52.1 169.1v4.6h1v1.3h-1v1.8H-54V175h-3.3v-1.3l3-4.6zm-3.7 4.6h2V170.5z" transform="translate(120.6 46.2)" aria-label="4" style="line-height:1.25;-inkscape-font-specification:'Franklin Gothic Demi';text-align:end" font-size="11.3" font-family="Franklin Gothic Demi" text-anchor="end" stroke-width=".3"/><path d="m-51.3 143.5-.1 1.5h-5.7v-1.4l1-.7 2.2-1.8q.7-.7.7-1.3 0-.5-.3-.7-.3-.3-.7-.3-1.1 0-1.3 1.4l-1.6-.3q.6-2.5 3-2.5 1.3 0 2 .7t.7 1.7q0 1-.7 1.7-.8.8-2.8 2z" transform="translate(178.9 77.7)" aria-label="2" style="line-height:1.25;-inkscape-font-specification:'Franklin Gothic Demi';text-align:end" font-size="11.3" font-family="Franklin Gothic Demi" text-anchor="end" stroke-width=".3"/><path d="M-51.7 186.7H-55l-.2 1.6q.7-.6 1.6-.6 1 0 1.8.7.7.6.7 1.7 0 1.2-.8 2-.7.7-2.1.7-2.4 0-3-2.2l1.7-.2q.2 1 1.2 1 .6 0 .9-.4.3-.3.3-.8t-.3-.8q-.4-.4-.9-.4-.7 0-1 .6l-1.5-.2.3-4.3h4.7z" transform="translate(237.2 30.2)" aria-label="5" style="line-height:1.25;-inkscape-font-specification:'Franklin Gothic Demi';text-align:end" font-size="11.3" font-family="Franklin Gothic Demi" text-anchor="end" stroke-width=".3"/><path d="M-52.1 169.1v4.6h1v1.3h-1v1.8H-54V175h-3.3v-1.3l3-4.6zm-3.7 4.6h2V170.5z" transform="translate(295.3 46.2)" aria-label="4" style="line-height:1.25;-inkscape-font-specification:'Franklin Gothic Demi';text-align:end" font-size="11.3" font-family="Franklin Gothic Demi" text-anchor="end" stroke-width=".3"/><path d="M-51.7 186.7H-55l-.2 1.6q.7-.6 1.6-.6 1 0 1.8.7.7.6.7 1.7 0 1.2-.8 2-.7.7-2.1.7-2.4 0-3-2.2l1.7-.2q.2 1 1.2 1 .6 0 .9-.4.3-.3.3-.8t-.3-.8q-.4-.4-.9-.4-.7 0-1 .6l-1.5-.2.3-4.3h4.7z" transform="translate(120.7 87.9)" aria-label="5" style="line-height:1.25;-inkscape-font-specification:'Franklin Gothic Demi';text-align:end" font-size="11.3" font-family="Franklin Gothic Demi" text-anchor="end" stroke-width=".3"/><path d="m-51.3 143.5-.1 1.5h-5.7v-1.4l1-.7 2.2-1.8q.7-.7.7-1.3 0-.5-.3-.7-.3-.3-.7-.3-1.1 0-1.3 1.4l-1.6-.3q.6-2.5 3-2.5 1.3 0 2 .7t.7 1.7q0 1-.7 1.7-.8.8-2.8 2z" transform="translate(63.2 136)" aria-label="2" style="line-height:1.25;-inkscape-font-specification:'Franklin Gothic Demi';text-align:end" font-size="11.3" font-family="Franklin Gothic Demi" text-anchor="end" stroke-width=".3"/><path d="M-55.2 156.3h.8q.6 0 .9-.2l.2-.6q0-.4-.2-.7-.3-.2-.8-.2-.9 0-1.1 1l-1.6-.3q.2-.9 1-1.5.7-.5 1.8-.5t1.9.5q.7.5.7 1.5 0 1.2-1.2 1.7 1.5.4 1.5 1.7 0 1-.8 1.7-.8.6-2.1.6t-2.1-.6q-.8-.7-1-1.7l1.7-.2q.2 1.2 1.3 1.2.5 0 .9-.3.3-.3.3-.8 0-.4-.3-.7-.3-.2-1.1-.2h-.7z" transform="translate(179 119.9)" aria-label="3" style="line-height:1.25;-inkscape-font-specification:'Franklin Gothic Demi';text-align:end" font-size="11.3" font-family="Franklin Gothic Demi" text-anchor="end" stroke-width=".3"/><path d="M-56.7 124.6V123q2-.5 2.5-1.5h1.3v6.3h2v1.3h-6v-1.3h2.3v-4.3q-1.4.8-2.1 1z" transform="translate(236.9 151.6)" aria-label="1" style="line-height:1.25;-inkscape-font-specification:'Franklin Gothic Demi';text-align:end" font-size="11.3" font-family="Franklin Gothic Demi" text-anchor="end" stroke-width=".3"/><path d="M-51.7 186.7H-55l-.2 1.6q.7-.6 1.6-.6 1 0 1.8.7.7.6.7 1.7 0 1.2-.8 2-.7.7-2.1.7-2.4 0-3-2.2l1.7-.2q.2 1 1.2 1 .6 0 .9-.4.3-.3.3-.8t-.3-.8q-.4-.4-.9-.4-.7 0-1 .6l-1.5-.2.3-4.3h4.7z" transform="translate(295.3 87.9)" aria-label="5" style="line-height:1.25;-inkscape-font-specification:'Franklin Gothic Demi';text-align:end" font-size="11.3" font-family="Franklin Gothic Demi" text-anchor="end" stroke-width=".3"/><path d="m-51.3 143.5-.1 1.5h-5.7v-1.4l1-.7 2.2-1.8q.7-.7.7-1.3 0-.5-.3-.7-.3-.3-.7-.3-1.1 0-1.3 1.4l-1.6-.3q.6-2.5 3-2.5 1.3 0 2 .7t.7 1.7q0 1-.7 1.7-.8.8-2.8 2z" transform="translate(158 99)" aria-label="2" style="line-height:1.25;-inkscape-font-specification:'Franklin Gothic Demi';text-align:end" font-size="11.3" font-family="Franklin Gothic Demi" text-anchor="end" stroke-width=".3"/></svg>