<svg width="1008.3" height="1008.3" viewBox="0 0 266.8 266.8" xmlns="http://www.w3.org/2000/svg"><g transform="translate(32 -17)" stroke="#000"><g transform="translate(-27 26)" fill="#fff" stroke-width="2"><path d="M31 239h145M31 59h145M194 76v145"/><circle cx="58.9" cy="-193.7" r="17.6" transform="rotate(90)"/><circle cx="238.8" cy="-193.7" r="17.6" transform="rotate(90)"/><path d="M14 76v145"/><circle cx="58.9" cy="-13.7" r="17.6" transform="rotate(90)"/><circle cx="238.8" cy="-13.7" r="17.6" transform="rotate(90)"/><path d="M104 76v145"/><circle cx="58.9" cy="-103.7" r="17.6" transform="rotate(90)"/><circle cx="238.8" cy="-103.7" r="17.6" transform="rotate(90)"/><path d="M31 149h145"/><circle cx="13.7" cy="148.9" r="17.6"/><circle cx="103.7" cy="148.9" r="17.6"/><circle cx="193.7" cy="148.9" r="17.6"/></g><g transform="translate(-2 2)" fill="#fff" stroke-width="2"><path d="M31 239h145M31 59h145M194 76v145"/><circle cx="58.9" cy="-193.7" r="17.6" transform="rotate(90)"/><circle cx="238.8" cy="-193.7" r="17.6" transform="rotate(90)"/><path d="M14 76v145"/><circle cx="58.9" cy="-13.7" r="17.6" transform="rotate(90)"/><circle cx="238.8" cy="-13.7" r="17.6" transform="rotate(90)"/><path d="M104 76v145"/><circle cx="58.9" cy="-103.7" r="17.6" transform="rotate(90)"/><circle cx="238.8" cy="-103.7" r="17.6" transform="rotate(90)"/><path d="M31 149h145"/><circle cx="13.7" cy="148.9" r="17.6"/><circle cx="103.7" cy="148.9" r="17.6"/><circle cx="193.7" cy="148.9" r="17.6"/></g><g transform="translate(23 -23)" fill="#fff" stroke-width="2"><path d="M31 239h145M31 59h145M194 76v145"/><circle cx="58.9" cy="-193.7" r="17.6" transform="rotate(90)"/><circle cx="238.8" cy="-193.7" r="17.6" transform="rotate(90)"/><path d="M14 76v145"/><circle cx="58.9" cy="-13.7" r="17.6" transform="rotate(90)"/><circle cx="238.8" cy="-13.7" r="17.6" transform="rotate(90)"/><path d="M104 76v145"/><circle cx="58.9" cy="-103.7" r="17.6" transform="rotate(90)"/><circle cx="238.8" cy="-103.7" r="17.6" transform="rotate(90)"/><path d="M31 149h145"/><circle cx="13.7" cy="148.9" r="17.6"/><circle cx="103.7" cy="148.9" r="17.6"/><circle cx="193.7" cy="148.9" r="17.6"/></g><circle cx="101.5" cy="150.4" r="13.6" fill="none" stroke-width="1.8"/><path d="M115 151a13 3 0 0 1-7 2 13 3 0 0 1-14 0 13 3 0 0 1-6-2" fill="none" stroke-width="1.8"/><path d="M115 151a13 3 0 0 0-7-2 13 3 0 0 0-14 0 13 3 0 0 0-6 2" fill="none" stroke-width="1.8" stroke-dasharray="3.5999998,1.7999999"/><g fill="none"><path d="m79 162 10 5v16l-14 4-11-5v-15z" stroke-width=".8"/><g stroke-width="1.7"><path d="m64 167 11 5v15M75 172l14-5" stroke-width=".835754"/></g><path d="m89 182-11-4 1-16M78 178l-14 4" stroke-width=".8" stroke-dasharray="1.67799999,.839"/></g><path d="m127 111 14 16-14 14-15-16z" fill="none"/><path d="m127 111-6 17 6 13" fill="none"/><path d="m112 125 9 3 20-1" fill="none"/><path d="m112 125 18-2 11 4" fill="none" stroke-dasharray="1.93599799,.96799899"/><path d="m127 111 2 12-2 18" fill="none" stroke-dasharray="1.93599799,.96799899"/><g fill="none" stroke-width="2"><path d="m12 136-6 28 20-10z" stroke-width="1.00542"/><path d="M12 136 1 151l5 13" stroke-width="1.00542"/><path d="m1 151 25 3" stroke-dasharray="2.01084,1.00542" stroke-width="1.00542"/></g><g fill="none"><path d="m192 135 8 5 7 10-7 11-8 4-8-4-7-11 7-10z" stroke-width=".937156"/><path d="m184 161 8-4M177 150l8-4M198 146l9 4M191 157l9 4M192 157l-7-11 7-10 6 10-6 11" stroke-width=".93212" stroke-dasharray="1.86424,.93212"/><g stroke-width="2"><path d="m184 140 8 4M177 150l8 4M198 154l9-4M191 144l9-4M192 144l-7 10 7 11 6-11-6-10" stroke-width=".93212"/></g></g><g transform="translate(266 51) scale(.54697)" fill="none" stroke-width="2"><ellipse cx="-90.9" cy="118" rx="18.1" ry="5.9"/><path d="M-73 155a18 6 0 0 1-9 5 18 6 0 0 1-18 0 18 6 0 0 1-9-5"/><path d="M-73 157a18 6 0 0 0-9-5 18 6 0 0 0-18 0 18 6 0 0 0-9 5" stroke-dasharray="6,2"/><path d="M-109 156v-39M-73 156v-39"/></g><g fill="none"><path d="m37 113 10 3-4 8H30l-4-8z" stroke-width=".9086559999999999"/><path d="m26 130 4 8h13l4-8" stroke-width=".9038"/><path d="m26 130 11-3 10 3M37 113v14" stroke-width=".9038" stroke-dasharray="1.8076,.9038"/><path d="M26 116v14M30 124v14M43 124v14M47 116v14" stroke-width=".9038"/></g><g fill="none" stroke-width="2"><path d="M-1 182a13 4 0 0 1-6 3 13 4 0 0 1-13 0 13 4 0 0 1-6-3" stroke-width="1.15718"/><path d="M-1 182a13 4 0 0 0-6-4 13 4 0 0 0-13 0 13 4 0 0 0-6 4" stroke-dasharray="2.31436,1.15718" stroke-width="1.15718"/><path d="m-27 182 14-21 12 20" stroke-width="1.15718"/></g><g fill="none"><path transform="matrix(.14972 0 0 .12945 187 122)" d="m-47 413-82 113-93-67v-92l93-67z" stroke-width="7.6"/><path d="m-66 97-25 42 47-13" stroke-width="2" transform="matrix(.56587 0 0 .48927 205 113)"/><path d="m-66 156-25-42 47 12" stroke-width="2" stroke-dasharray="4,2" transform="matrix(.56587 0 0 .48927 205 113)"/></g><g fill="none"><path d="m102 50 7 6-3 9h-9l-3-9z" stroke-width=".8432199999999999"/><path d="m102 71 7-5-3-9h-9l-3 9z" stroke-width=".8432199999999999" stroke-dasharray="1.6773531949999998,.8386777069999999"/><path d="m102 46 8 3 6 7v9l-6 8-8 2-9-2-5-8v-9l5-7z" stroke-width=".8432199999999999"/><path d="M102 50v-4M94 56h-6M109 56h7M97 65l-4 8M106 65l4 8" stroke-width=".8387"/><path d="M102 71v4M109 66l7-1M94 66l-6-1M97 57l-4-8M106 57l4-8" stroke-width=".8387" stroke-dasharray="1.6774,.8387"/></g><g fill="none"><path d="m101 231 9 15H93z" stroke-width=".73074"/><path d="m101 250 9-14H93z" stroke-width=".73074" stroke-dasharray="1.453605315,.726803619"/><path d="m102 225 13 8v15l-13 8-14-8v-15z" stroke-width=".740232"/><path d="m88 233 13-2 14 2M101 231l1-6M88 233l5 13M115 233l-5 13M115 248l-5-2M93 246l-5 2M93 246l9 10M110 246l-8 10" stroke-width=".72678"/><path d="m101 250 1 6M88 248l13 2 14-2M88 233l5 3 9-11 8 11 5-3M88 248l5-12M110 236l5 12" stroke-width=".72678" stroke-dasharray="1.48190442,.74095221"/></g><g fill="none"><path d="m139 215-9 14-11-5-5-9 5-9 11-5z" stroke-width=".9277730000000001"/><path d="m114 215 12 4 13-4" stroke-width=".91076"/><path d="m119 206 7 13 4 10" stroke-width=".91076"/><path d="m114 215 12-4 13 4" stroke-width=".91076" stroke-dasharray="1.8570396400000002,.9285198200000001"/><path d="m130 201-4 10-7 13" stroke-width=".91076" stroke-dasharray="1.8570396400000002,.9285198200000001"/></g><g fill="none"><path d="M19 253H4l-7-13 7-12h15l7 12z" stroke-width=".941325"/><path d="m12 232 7 12H5z" stroke-width="1.020866"/><path d="m12 248 7-12H5z" stroke-width="1.020866" stroke-dasharray="2.043442282,1.0217224668"/><path d="m4 228 1 8-8 4M19 228v8l7 4M4 253l8-5 7 5" stroke-width=".9241" stroke-dasharray="1.8842399000000003,.9421199500000002"/><path d="m4 228 8 4 7-4M-3 240l8 4-1 9M26 240l-7 4v9" stroke-width=".9241"/></g><path d="m-13 71 5 2 8 6v12l-8 7-5 1-6-1-7-7V79l7-6z" fill="none" stroke-width=".8"/><path transform="matrix(.09737 0 0 .1088 19 36)" d="m-335 420 52 89h-103z" fill="none" stroke-width="7.8"/><path transform="matrix(.09737 0 0 -.1088 19 135)" d="m-335 420 52 89h-103z" fill="none" stroke-width="7.8" stroke-dasharray="15.54603531,7.77301767"/><path d="m-18 79-1-6h11v6" fill="none" stroke-width=".8" stroke-dasharray="1.59999999,.8"/><path d="m-18 91-1 7h11v-7M-18 91l-8-6 5-9 8 6M-8 91l8-6-5-9-8 6M-21 76l8-5 8 5M-26 79l5-3M-5 76l5 3" fill="none" stroke-width=".8"/><path d="m-18 79-8 6 5 9 8-5M-8 79l8 6-5 9-8-5M-21 94l8 5 8-5M-26 91l5 3M0 91l-5 3" fill="none" stroke-width=".8" stroke-dasharray="1.59999999,.8"/><path d="m183 67 11 3 11-3" fill="none" stroke-width=".9"/><path d="m183 67 11-3 11 3M189 51l5 13" fill="none" stroke-width=".9" stroke-dasharray="1.880004,.940002"/><path d="m177 54 6 13M189 57l5 13M200 54l5 13M177 54l12 3 11-3M177 54l12-3 11 3" fill="none" stroke-width=".9"/><g fill="none"><g stroke-width="2"><path d="M-56 132a22 7 0 0 1-11 6 22 7 0 0 1-22 0 22 7 0 0 1-10-6" transform="matrix(.61817 0 0 .43262 215 29)"/><path transform="matrix(.61817 0 0 -.43262 215 29)" d="M-56-132a22 7 0 0 1-11 7 22 7 0 0 1-22 0 22 7 0 0 1-10-7" stroke-dasharray="4,2"/><path d="m-100 132 23-35 22 34" transform="matrix(.61817 0 0 .43262 215 29)"/></g><path d="m-117 106 13 19 13-19" stroke-width="1.1" transform="matrix(1.0684 0 0 .74772 277 7)"/></g><g fill="none"><path d="m77 70 13 13v5l-13 13-14-13v-5z" stroke-width=".985036"/><path d="m63 83 9 5 5 13M90 88l-8-5-5-13M72 88l10-5" stroke-width=".9797"/><path d="m90 83-8 5-5 13M63 88l9-5 5-13M82 88l-10-5" stroke-width=".9797" stroke-dasharray="1.9594,.9797"/></g><path d="m-13 250 13 10v11l-13 9-12-7v-15z" fill="none" stroke-width=".9"/><path d="m-25 273 15 1 10-3" fill="none" stroke-width=".9"/><path d="m0 271-16-2-9 4" fill="none" stroke-width=".9" stroke-dasharray="1.76666,.883331"/><path d="m0 260-16 1-9-3" fill="none" stroke-width=".9"/><path d="m-25 258 15-2 10 4M-13 250l3 6M-10 256l-6 13M-10 256l10 15M-25 258l9 11M-16 269l3 11" fill="none" stroke-width=".9" stroke-dasharray="1.76666,.883331"/><path d="m-10 274-3 6M-16 261l6 13M-16 261l-9 12M0 260l-10 14M-13 250l-3 11" fill="none" stroke-width=".9"/><path d="m-225 356 104 104-104 104-104-104Z" transform="matrix(.1229 0 0 .0867 64 -4)" fill="none" stroke-width="9.7"/><path d="M37 27v-7M37 51v-6M24 36l6-10 7-6M49 36l-5-10-7-6M49 36l-5 10-7 5M24 36l6 10 7 5" fill="none"/><path d="m30 26 13 20M43 26 30 46" fill="none" stroke-dasharray="2,1"/><g transform="matrix(.47587 0 0 .47587 60 13)" fill="none" stroke-width="2"><ellipse cx="-101.8" cy="100.9" rx="30.2" ry="20.5"/><path d="M-71 101a30 9 0 0 1-16 8 30 9 0 0 1-30 0 30 9 0 0 1-15-8"/><path d="M-132 101a9 30 90 0 1 15-8 9 30 90 0 1 30 0 9 30 90 0 1 16 8" stroke-dasharray="4,2"/></g><ellipse cx="191.5" cy="240.4" rx="10.2" ry="14.9" fill="none"/><path d="M202 241a10 3 0 0 1-10 3 10 3 0 0 1-11-3" fill="none"/><path d="M202 242a10 3 0 0 0-10-4 10 3 0 0 0-11 3" fill="none" stroke-dasharray="2,1"/><g fill="none"><path d="m218 22 7 3 5 4v9l-2 5-5 4-8 2-7-3-5-4v-9l2-5 5-4z" stroke-width=".661789"/><path d="m230 29-2 5v9M215 49l5-4 8-2M208 46l6-3 6 2M214 43l7-2 7 2M221 41v-9l7 2M221 32l4-5 5 2M214 43v-8l7-3" stroke-width=".661789"/><path d="m203 42 4-2 7 3M207 40v-8l-4 1M207 32l7 3M207 32l8-4 6 4M215 28l3-6 7 5M207 32l3-8" stroke-width=".69662"/><path d="m203 42 2-5v-9M218 22l-5 4-8 2M225 25l-6 3-6-2M219 28l-7 3-7-3M212 31v8l-7-2M212 39l-4 5-5-2M219 28v8l-7 3M230 29l-4 2-7-3M226 31v8l4-1M226 39l-7-3M226 39l-8 4-6-4M218 43l-3 6-7-5M226 39l-3 8" stroke-width=".69662" stroke-dasharray="1.39324,.69662"/></g><g fill="none" stroke-width="2"><path d="M-71 113a22 7 0 0 1-11 6 22 7 0 0 1-22 0 22 7 0 0 1-11-6" transform="matrix(.58578 0 0 .54331 181 -21)"/><path transform="matrix(.58578 0 0 -.54331 181 -21)" d="M-71-113a22 7 0 0 1-11 6 22 7 0 0 1-22 0 22 7 0 0 1-11-6" stroke-dasharray="4,2"/><path d="m-116 113 23-35 22 34M-71 112a22 18 0 0 1-22 17 22 18 0 0 1-23-16" transform="matrix(.58578 0 0 .54331 181 -21)"/></g><g transform="matrix(.48378 0 0 .48378 82 153)" fill="none" stroke-width="2"><rect width="49.7" height="49.7" x="-119.6" y="103.4" ry="12.8"/><path d="M-115 150a12 30 45 0 1 3-18 12 30 45 0 1 21-21 12 30 45 0 1 18-3"/><path d="M-116 108a12 30-45 0 1 18 3 12 30-45 0 1 21 21 12 30-45 0 1 3 18"/><path d="M-115 106a12 30-45 0 0 3 18 12 30-45 0 0 21 21 12 30-45 0 0 18 3" stroke-dasharray="4,2"/><path d="M-116 148a12 30 45 0 0 18-3 12 30 45 0 0 21-21 12 30 45 0 0 3-18" stroke-dasharray="4,2"/></g><g fill="none"><path d="m216 209 7 4-2 8h-9l-2-8z" stroke-width=".8932279999999999"/><path d="m221 201 8 6 2 8-2 9-8 6h-9l-8-6-2-9 2-8 8-6z" stroke-width=".8932279999999999"/><path d="m216 227-4-6-7-2 5-6v-7l6 2 7-2v7l5 6-7 2z" stroke-width=".8932279999999999"/><path d="m204 207 6-1 2-5M221 201l2 5 6 1M231 215l-3 4 1 5M221 230l-5-3-4 3M204 224l1-5-3-4" stroke-width=".88844"/><path d="m216 222 7-4-2-8h-9l-2 8z" stroke-width=".8932279999999999" stroke-dasharray="1.776830293,.8884163218"/><path d="m216 204-4 6-7 2 5 6v7l6-2 7 2v-7l5-6-7-2z" stroke-width=".8932279999999999" stroke-dasharray="1.776830293,.8884163218"/><path d="m204 224 6 1 2 5M221 230l2-5 6-1M231 216l-3-4 1-5M221 201l-5 3-4-3M204 207l1 5-3 4" stroke-width=".88844" stroke-dasharray="1.77688,.88844"/></g><g fill="none"><path transform="matrix(.12706 0 0 .11322 198 211)" d="m-141 479-25 61-74 70-97-73V420l97-72 74 70z" stroke-width="7.6"/><path d="m-110 128 19 17 26-17M-110 161l19-16 26 16" stroke-width="1.8" transform="matrix(.48023 0 0 .4279 208 204)"/><path d="M-65 128v32" stroke-width="2" transform="matrix(.48023 0 0 .4279 208 204)"/><path d="m-85 109 5 19v33l-5 18M-80 128l21 16-21 17" stroke-width="2" stroke-dasharray="4,2" transform="matrix(.48023 0 0 .4279 208 204)"/><path d="m-110 128 8 17 22-17M-110 159l8-14 22 16" stroke-width="2" stroke-dasharray="4,2" transform="matrix(.48023 0 0 .4279 208 204)"/></g><g transform="translate(129 188) scale(.54432)" fill="none"><path d="M-72 153a29 29 0 0 1-24 14 29 29 0 0 1-25-13" stroke-width="2"/><ellipse cx="-27.2" cy="172" rx="7.3" ry="22" transform="rotate(30)" stroke-width="2"/><ellipse cx="140.8" cy="75.2" rx="7.3" ry="22" transform="scale(-1 1) rotate(30)" stroke-width="2"/><path d="M-84 124a16 16 0 0 0-13-8 16 16 0 0 0-13 7" stroke-width="2"/><path d="M-76 158a21 6 0 0 1-20 5 21 6 0 0 1-22-5" stroke-width="1.6"/><path d="M-76 160a21 6 0 0 0-20-6 21 6 0 0 0-22 5" stroke-width="1.6" stroke-dasharray="3.28706,1.64353"/></g></g></svg>